<svg xmlns="http://www.w3.org/2000/svg" viewBox="0 0 876.32 876.33"><g id="Layer_2" data-name="Layer 2"><g id="Layer_1-2" data-name="Layer 1"><path d="M438.19,876.33C196,876.44,2,680.51,0,442.34-2,198.81,192.31,6.63,425.52.17c248.41-6.88,453.67,193.77,450.77,443.5C873.54,680.69,680.61,876.33,438.19,876.33Zm0-813.15C231.69,62.83,65.16,230.2,63,434c-2.2,209.22,167.15,379.33,375,379.37,207.11,0,375.13-167.74,375.22-375.43C813.32,230.47,644.35,62.81,438.19,63.18Z"/><path d="M306.68,369.16v-4.08c0-17.1-.21-34.21,0-51.32.68-46.65,20.25-83.45,58.66-109.85a120,120,0,0,1,51.07-20c54.63-8,98,11,130.21,55.34,15.92,21.92,22.82,47.17,23,74.19.13,17.61,0,35.21,0,52.81,0,.85.17,1.69.29,2.87h20.28c11.08,0,15.65,4.54,15.62,15.69-.05,18.34-.24,36.69-.22,55q.06,99.08.23,198.15c0,10.89-4.58,15.5-15.45,15.5q-82.23,0-164.46,0c-12.91,0-25.83-.36-38.75-.34-33.68.06-67.37.25-101.06.35-11.13,0-15.73-4.55-15.73-15.59V437.14q0-26.4,0-52.81c0-10.59,4.73-15.18,15.41-15.17Zm64.09-.19H505.34c.07-1.22.17-2.19.17-3.16,0-18.22,0-36.44-.11-54.66a57.59,57.59,0,0,0-1.26-11.49c-7.19-34-38.81-57.15-72.91-53.5a67.81,67.81,0,0,0-60.61,67.6q0,26,0,52C370.61,366.77,370.71,367.74,370.77,369Zm46.76,202.16c0,8.11,0,16.21,0,24.32,0,6.52,3.39,10,9.8,10.14,7,.11,14,.13,21,0,6.39-.12,9.82-3.7,9.84-10.15.05-16,.09-31.94,0-47.91a7.62,7.62,0,0,1,3-6.57c11.94-10.17,15.17-27.77,7.94-41.93-7.12-13.93-23.3-21.57-38.4-18-13.57,3.23-22.59,11.68-26.14,25-3.58,13.53.18,25.42,10.58,34.93a6.43,6.43,0,0,1,2.44,5.41C417.44,554.66,417.53,562.89,417.53,571.13Z"/></g></g></svg>