<svg xmlns="http://www.w3.org/2000/svg" viewBox="0 0 495.26 488.96"><defs><style>.cls-1{fill:#681d52;}.cls-2{fill:#eadaed;}.cls-3{fill:#efefef;}.cls-4{fill:#fde295;}.cls-5{fill:#fbca71;}.cls-6{fill:#f98889;}</style></defs><g id="Layer_2" data-name="Layer 2"><g id="Layer_1-2" data-name="Layer 1"><path class="cls-1" d="M413.21,293.67c-.06,1.52-.17,3.05-.17,4.58q0,84.71,0,169.4c0,14-7.24,21.31-21.19,21.31H102.48c-10.41,0-16.91-4.83-19.74-14.64V279.6l3.82.41c-1.21-.92-3.57-1.83-3.74-3-.42-3.15-.47-6.3,1.57-9.49,1.29-2,.74-5.47.41-8.2-.3-2.47-1.85-4.8-2.09-7.27-.43-4.35.21-8.72.09-13.14-.46-16.33-.17-32.69-.2-49,0-1.38-.25-2.75-.38-4.13-5.9-4.79-11.72-9.69-17.71-14.36q-23-17.94-46.18-35.72c-1.4-1.08-2.91-2-4.36-3L1.54,121.93a13.69,13.69,0,0,1-.64-11.2c.17-.35.35-.7.53-1q8-5,16-10c1.6-1,3.18-2,4.77-3l1.26-.59q15.18-8,30.38-16c8.67-4.6,17.34-9.2,25.95-13.91,5-2.76,9.65-2.35,14.29,1C109.23,78,124.41,88.73,139.56,99.53l.72.41a.56.56,0,0,0,.55.45l8.67,6.23,1.44,1,9.72,6.93.05,0,1.75,1.31,0,0c2.38.9,4.7,2.41,7.13,2.59,5.33.4,10.71,0,16.06.21,1.76.08,3.48,1.15,5.22,1.76h0l.45,1.26.27,1c-.94,3.27-3,4.67-6.5,4.53-5.48-.21-11-.18-16.47,0a9,9,0,0,0-4.86,1.63q-30.82,23.69-61.5,47.56a17.29,17.29,0,0,0-1.86,2.06h30.75c1.15,0,2.29.13,3.44.13q111.53,0,223.05,0c2.17,0,4.34-.1,6.51-.15h31.23c-1.41-1.24-2.19-2-3-2.64-16.34-12.66-33.1-24.81-48.85-38.14-9.2-7.78-18.49-12.29-30.67-10.66-5,.67-5.82-.69-6.09-5.91,1.84-.87,3.67-1.76,5.52-2.62a1.5,1.5,0,0,1,.76,0c11.94,2,21.33-2.73,30.67-9.86,18.54-14.14,37.86-27.28,56.72-41,5.27-3.83,10.17-4.28,15.94-1.13C436.17,77.42,456.18,88,476.15,98.73a6.36,6.36,0,0,0,1.45.41l2.27,1.51c2.61,1.48,5.19,3,7.83,4.43,6.67,3.64,9,9.48,6.68,15.77l-11.49,10.42q-23.64,18.18-47.27,36.36c-6.57,5.06-13,10.26-19.67,15.21a6.61,6.61,0,0,0-3,6c.11,24.87.05,49.74.08,74.61,0,5.46.13,10.92.21,16.39Q413.22,286.78,413.21,293.67Zm-9.14-26.14q0-6,0-12.09V187.27h-10.9l-270.06,0c-1.65,0-3.31.12-5,.18-7.77-.06-15.53-.15-23.29-.15a19.64,19.64,0,0,0-3.51.64c-.09,1.26-.26,2.52-.26,3.78q0,24.65,0,49.3c0,13,.1,25.93.15,38.9-.11,1.46-.23,2.91-.41,5.24h26.51a87.14,87.14,0,0,1,9.4-.4c8.41.5,17-1.74,25.23,1.33.39.15.95-.25,1.44-.31,2.3-.3,4.64-.95,6.89-.74a3.77,3.77,0,0,1,2.66,6.2,7.77,7.77,0,0,1-5.28,2.09c-13.39.23-26.78.22-40.17.28H91.29V385h26.07c11.87.05,23.74.12,35.6.14q25.47,0,50.93,0c3.12,0,5.67.83,5.93,4.48.19,2.74-2.16,4.43-5.89,4.43-5,0-10,0-14.93,0l-71.59.14H91.47a5.51,5.51,0,0,0-.36,1.27c0,25.16-.07,50.31,0,75.47,0,5.2,4,9.06,9.39,9.17,6.63.14,13.27-.05,19.9-.09a13.17,13.17,0,0,0,1.51.17q135.6,0,271.2-.11a28.52,28.52,0,0,0,4.45-.68c4.88-2,6.58-4.5,6.58-9.93q0-35.78,0-71.54c0-1.11-.12-2.22-.21-3.65H382.48c-.76-.06-1.52-.15-2.28-.15q-44,0-88-.06c-1.4,0-2.81.07-4.21,0-2.44-.17-4.09-1.32-4.3-4-.23-2.88,1.74-4.05,4-4.75a13.32,13.32,0,0,1,3.8-.16c19.77,0,39.54,0,59.32,0,14.66,0,29.33-.14,44-.22h9.13V293.58H381.11c-5.09-.06-10.18-.16-15.26-.18-9.93,0-19.87.09-29.79-.15a6.4,6.4,0,0,1-4.47-2.58c-.64-1-.25-3.46.63-4.37a7.23,7.23,0,0,1,4.71-1.69c14.2-.16,28.4-.15,42.6-.2h24.56V272.29C404.08,270.7,404.07,269.12,404.07,267.53ZM18.35,124.27l13,10.1c6.5,5.12,13,10.28,19.52,15.37q16.6,12.94,33.28,25.8c1.27,1,2.42,2.28,4.27.68,3.65-3.16,7.44-6.16,11.18-9.23a18.47,18.47,0,0,0,2.24-1.31q16.8-13,33.58-26l21.34-16.51c-1-.82-1.61-1.42-2.32-1.93-8.9-6.41-17.78-12.87-26.73-19.21-8.3-5.88-16.69-11.65-25-17.46-4.06-3.07-8.23-6-12.13-9.25-2.74-2.29-5-2.43-8.21-.66-10.45,5.86-21.08,11.4-31.65,17Q31.14,102,11.58,112.39c-3.8,2-4,3.79-.59,6.47C13.38,120.75,15.9,122.47,18.35,124.27Zm454.76-17.14-17.72-9.48-5.06-2.85L427.74,83c-5.13-2.84-10.35-5.54-15.36-8.57-2.58-1.57-4.45-1.37-6.88.39C389.38,86.47,373.15,98,357,109.58c-6.09,4.37-12.15,8.78-18.56,13.42,3.86,3,7.35,5.76,10.86,8.47l48.5,37.35c2.77,2.23,5.63,4.35,8.28,6.72,1.89,1.7,3.31,1.49,5.22,0,7.38-5.87,14.88-11.58,22.33-17.36l33.14-25.7,17.63-13.7c1.62-1.25,3.25-3,1.24-4.65-1.8-1.52-4.39-2.09-6.63-3.09Z"/><path class="cls-2" d="M306.68,121.17c.27,5.22,1.12,6.58,6.09,5.91,12.18-1.63,21.47,2.88,30.67,10.66,15.75,13.33,32.51,25.48,48.85,38.14.84.65,1.62,1.4,3,2.64H364.09a6.27,6.27,0,0,0-1-1.51c-6.54-5.2-13.13-10.34-19.66-15.55-9-7.21-19.33-10.06-30.8-9.68-8.39.28-16.81,0-25.21.08a53.94,53.94,0,0,0-5.65.63l11.62-29.83Z"/><path class="cls-1" d="M250.72,2.25l.68.38,1.56,2,.09,98.3q0,25.59,0,51.17c-1.06,2.32-2.78,3.57-5.38,2.93s-3.34-2.75-3.38-5.18q0-14.61,0-29.2v-7.62l0-21.51c0-12,.16-24,.16-36,0-15.32-.08-30.65-.13-46,.07-1.14.17-2.28.19-3.42C244.62,3.17,245.66,2.17,250.72,2.25Z"/><path class="cls-1" d="M293.4,122.66q-5.81,14.91-11.62,29.83c-1.09,2.46-2,5.14-5.54,4.67-3-.4-3.71-2.69-3.88-5.27,2.54-6.49,5.14-13,7.61-19.48,1.19-3.14,2.15-6.38,3.22-9.57l3.69-8.52.72-1.55,4.71-12.71c.9-2.29,1.79-4.57,2.68-6.86q4.59-11.72,9.17-23.44c1.5-3.83,3.78-5.36,6.41-4.07,3.3,1.61,2.94,4.24,1.79,7.15-3.53,9-6.65,18.15-10.52,27C298.57,107.29,296.4,115.12,293.4,122.66Z"/><path class="cls-2" d="M283.19,122.84c-1.07,3.19-2,6.43-3.22,9.57-2.47,6.52-5.07,13-7.61,19.48-5.06,0-10.12-.2-15.16.05-1.4.07-2.73,1.43-4.1,2.19q0-25.57,0-51.17L253,4.66h.79l.12,88.11,0,1.66,0,20.52c0,.31,0,.63,0,.94v6.63Z"/><path class="cls-1" d="M197.8,86.76l1.42.38a50.71,50.71,0,0,1,2.86,4.78c1.45,3.07,2.7,6.24,4,9.36l4.48,12.39,1.71,3.74h0c.28.75.56,1.49.85,2.24.3,1.27.61,2.54.92,3.8,2.54,6.48,5.17,12.92,7.57,19.45,1.36,3.68,2.35,7.49,3.5,11.24-2.75,4-6.31,4.19-8.36.37-.46-.87-.83-1.78-1.24-2.68l-11.42-30.23c-3.34-9-6.73-18-10-27.06C192.45,90,193.28,88.38,197.8,86.76Z"/><path class="cls-1" d="M176,29.12c.64.65,2.31,1.62,2.89,3C184,44.64,189,57.2,193.92,69.76c1,2.55.65,5-2.14,6.07s-4.91-.12-6-3C180.82,60.41,175.83,48,171,35.54,169.6,32,171.63,29,176,29.12Z"/><path class="cls-1" d="M327.61,33.11c-1.26,3.27-2.23,5.76-3.18,8.25-1.46,3.81-2.84,7.64-4.38,11.41-1,2.48-3,3.54-5.56,2.66a3.85,3.85,0,0,1-2.66-5.19c2.25-6.35,4.59-12.69,7.39-18.81.55-1.22,3.46-2.17,5-1.88C325.62,29.8,326.62,32,327.61,33.11Z"/><path class="cls-3" d="M38.35,424.77l7.47,2.07c.27-.42.54-.84.8-1.26L34.46,415.35l6.94-5.15,0,0-3,4.88,10.71,11.09c-4,3-9.45,2.16-10.81-1.4Z"/><path class="cls-3" d="M44.47,407.91l.58-2.46-6.13-.27,0-1.1a34.62,34.62,0,0,1,4.56.05,14.22,14.22,0,0,1,3.16,1.17l-2.18,2.62Z"/><path class="cls-3" d="M253.75,4.65H253l-1.56-2,1-2.63C253,2.25,253.4,3.45,253.75,4.65Z"/><path class="cls-3" d="M280.6,115l3.07-2.3v0l-3.06,2.3Z"/><path class="cls-3" d="M44.48,407.92l-1.54,1.53h0l1.54-1.53Z"/><path class="cls-3" d="M38.33,424.79l-1.17-.93.24-.25,1,1.16Z"/><path class="cls-3" d="M162.46,115.93l-1.75-1.31Z"/><path class="cls-3" d="M42.94,409.45l-1.52.77,0,0,1.53-.76Z"/><path class="cls-3" d="M34.49,408.66l.33-.3-.3.33Z"/><path class="cls-3" d="M281.37,108.91l-.32-.19.34.18Z"/><path class="cls-3" d="M140.28,99.94l-.72-.41Z"/><path class="cls-4" d="M397.59,479.37a28.52,28.52,0,0,1-4.45.68q-135.6.09-271.2.11a13.17,13.17,0,0,1-1.51-.17c-1-3.15-2.89-6.3-2.91-9.47-.23-25.44-.12-50.9-.11-76.35L189,394c5,0,10,0,14.93,0,3.73,0,6.08-1.69,5.89-4.43-.26-3.65-2.81-4.49-5.93-4.48q-25.47,0-50.93,0c-11.86,0-23.73-.09-35.6-.14q0-19.71,0-39.4,0-26,.13-52c13.39-.06,26.78-.05,40.17-.28A7.77,7.77,0,0,0,163,291.2a3.77,3.77,0,0,0-2.66-6.2c-2.25-.21-4.59.44-6.89.74-.49.06-1,.46-1.44.31-8.27-3.07-16.82-.83-25.23-1.33a87.14,87.14,0,0,0-9.4.4c0-2.76,0-5.53,0-8.29q0-43.3,0-86.6a22,22,0,0,0-.23-2.28l1.17-.07H362c6.94,20.74,12.25,41.29,14.94,62.43l.85,21.95,1.74,12.15c-14.2,0-28.4,0-42.6.2a7.23,7.23,0,0,0-4.71,1.69c-.88.91-1.27,3.4-.63,4.37a6.4,6.4,0,0,0,4.47,2.58c9.92.24,19.86.11,29.79.15,5.08,0,10.17.12,15.26.18.19,20.13,0,40.25-2.42,60.26-.88,7.26-2.09,14.52-3.66,21.66-1.67,7.66-1.13,8.57,6.58,8.69,4.39.07,8.77.47,13.16.72-14.66.08-29.33.19-44,.22-19.78,0-39.55,0-59.32,0a13.32,13.32,0,0,0-3.8.16c-2.25.7-4.22,1.87-4,4.75.21,2.64,1.86,3.79,4.3,4,1.4.1,2.81,0,4.21,0q44,0,88,.06c.76,0,1.52.09,2.28.15-2.37.2-4.74.56-7.11.56-2,0-3.37.21-3.89,2.54a105.62,105.62,0,0,1-2.84,10.46c-4.28,12.93-8.2,26-13.17,38.67-4.35,11.06-9.93,21.63-15.12,32.74h4.36ZM229.51,368.24c0,3.84,0,7.67,0,11.5.11,10.78,7.82,18.87,18,18.92,10.47,0,18.17-7.93,18.27-19,.05-6.13,0-12.27,0-18.4,0-9.33,4.13-15.84,12.41-20.32,23.27-12.61,35.83-32.31,36.56-58.78,1.34-49-51.05-83.12-95.28-62-24.86,11.9-37.88,32.28-39,59.93-.36,9.32,5.45,16.67,14,18.61a17.55,17.55,0,0,0,20.62-10.64c1.3-3.2,1.37-6.95,1.75-10.48a31.07,31.07,0,0,1,22.11-26.24,30.75,30.75,0,0,1,33,10.57c12.13,15.8,7.49,37.54-10.19,46.71-11.5,6-20.31,14.44-26.12,26C230.27,345.28,228.9,356.58,229.51,368.24Zm18.07,92.64c13.38,0,22.79-9.62,22.73-24.31-.06-12.8-11.42-21-22.62-21.25a22.78,22.78,0,1,0-.11,45.56Z"/><path class="cls-4" d="M102.68,84.54c8.34,5.81,16.73,11.58,25,17.46,9,6.34,17.83,12.8,26.73,19.21.71.51,1.34,1.11,2.32,1.93l-21.34,16.51q-16.78,13-33.58,26A18.47,18.47,0,0,1,99.6,167c-2.14-1.76-4.24-3.55-6.41-5.26-11.46-9-22.9-18-34.42-26.91-3.46-2.67-7.2-5-10.74-7.54-1.49-1.09-3.42-2.15-4.1-3.68-1.6-3.65.86-8.65,4.46-10.51,6.71-3.47,13.36-7,20-10.56Z"/><path class="cls-4" d="M397.77,168.82l-48.5-37.35c-3.51-2.71-7-5.46-10.86-8.47,6.41-4.64,12.47-9,18.56-13.42C373.15,98,389.38,86.47,405.5,74.79c2.43-1.76,4.3-2,6.88-.39,5,3,10.23,5.73,15.36,8.57-.57.88-1.6,1.75-1.61,2.63,0,1.81.8,3.62.84,5.44.21,10.92,1,22-1.78,32.64a91.54,91.54,0,0,1-15.85,33.07C405.94,161.12,401.65,164.81,397.77,168.82Z"/><path class="cls-5" d="M397.59,479.37l-52.88-.15h-4.36c5.19-11.11,10.77-21.68,15.12-32.74,5-12.66,8.89-25.74,13.17-38.67a105.62,105.62,0,0,0,2.84-10.46c.52-2.33,1.92-2.54,3.89-2.54,2.37,0,4.74-.36,7.11-.56H404c.09,1.43.21,2.54.21,3.65q0,35.78,0,71.54C404.17,474.87,402.47,477.36,397.59,479.37Z"/><path class="cls-5" d="M397.77,168.82c3.88-4,8.17-7.7,11.57-12.07a91.54,91.54,0,0,0,15.85-33.07C428,113,427.18,102,427,91c0-1.82-.84-3.63-.84-5.44,0-.88,1-1.75,1.61-2.63L450.33,94.8l5.06,2.85,17.72,9.48L479,111c2.24,1,4.83,1.57,6.63,3.09,2,1.68.38,3.4-1.24,4.65l-17.63,13.7-33.14,25.7c-7.45,5.78-15,11.49-22.33,17.36-1.91,1.52-3.33,1.73-5.22,0C403.4,173.17,400.54,171.05,397.77,168.82Z"/><path class="cls-5" d="M379.53,284.41l-1.74-12.15-.85-21.95c-2.69-21.14-8-41.69-14.94-62.43H118.3a.4.4,0,0,1-.14-.47c1.65-.06,3.31-.18,5-.18l270.06,0h10.9v63.4q0,10.82,0,21.62v12.12Z"/><path class="cls-2" d="M215.54,151.82c-10.71,0-21.44.41-32.13-.08-14.17-.65-25.94,4.2-36.33,13.52-4.71,4.23-10,7.85-14.93,11.78a6.62,6.62,0,0,0-1.06,1.5H100.34a17.29,17.29,0,0,1,1.86-2.06q30.72-23.82,61.5-47.56a9,9,0,0,1,4.86-1.63c5.48-.2,11-.23,16.47,0,3.5.14,5.56-1.26,6.5-4.53l7.83,0c1.91,1,3.67,1.32,4.76-1.13Z"/><path class="cls-5" d="M394.77,384.91c-4.39-.25-8.77-.65-13.16-.72-7.71-.12-8.25-1-6.58-8.69,1.57-7.14,2.78-14.4,3.66-21.66,2.43-20,2.61-40.13,2.42-60.26H403.9v91.33Z"/><path class="cls-2" d="M117.13,188l-25.77,0a19.64,19.64,0,0,1,3.51-.64c7.76,0,15.52.09,23.29.15a.4.4,0,0,0,.14.47Z"/><path class="cls-2" d="M190.81,120.46l.45,1.26Z"/><path class="cls-2" d="M244.34,151.88c-4.72,0-9.45.11-14.16-.11-2.26-.1-3.88.45-5,2.36-1.16-3.75-2.15-7.56-3.51-11.24-2.4-6.53-5-13-7.57-19.45l2.07-.06c1.2.45,2.63,1.92,3.14-.71h25.07Q244.34,137.27,244.34,151.88Z"/><path class="cls-3" d="M212.3,117.4l3.14-1.57.82.85-3.11,3Z"/><path class="cls-1" d="M229.51,368.24c-.61-11.66.76-23,6.08-33.54,5.81-11.59,14.62-20.06,26.12-26C279.39,299.5,284,277.76,271.9,262a30.75,30.75,0,0,0-33-10.57,31.07,31.07,0,0,0-22.11,26.24c-.38,3.53-.45,7.28-1.75,10.48a17.55,17.55,0,0,1-20.62,10.64c-8.51-1.94-14.32-9.29-14-18.61,1.08-27.65,14.1-48,39-59.93,44.23-21.17,96.62,12.95,95.28,62-.73,26.47-13.29,46.17-36.56,58.78-8.28,4.48-12.44,11-12.41,20.32,0,6.13.05,12.27,0,18.4-.1,11.07-7.8,19-18.27,19-10.16-.05-17.87-8.14-18-18.92C229.48,375.91,229.51,372.08,229.51,368.24Zm8.86-1.91c0,5.82-.29,9.94.11,14a13.07,13.07,0,0,0,2.48,6.53,8.81,8.81,0,0,0,10.13,2.36c3.69-1.64,5.83-4.45,5.83-8.64,0-5.49.17-11,0-16.47-.49-14.62,5.54-25,18.71-31.88a57.59,57.59,0,0,0,29-63.86c-7.56-31.11-36.05-49.88-67.71-44.59-27,4.51-48.22,29.94-47.63,57.14a9.35,9.35,0,0,0,6.73,9.18,8.56,8.56,0,0,0,9.8-3.34,15.25,15.25,0,0,0,2-7.17c.85-18.9,14.48-34.31,33.65-37.8,17.12-3.12,35.65,7.13,42.68,23.6,8.56,20.06.43,41.41-19.87,52a47.22,47.22,0,0,0-21,21.58C238.71,348.18,237.81,358,238.37,366.33Z"/><path class="cls-1" d="M247.58,460.88a22.78,22.78,0,1,1,.11-45.56c11.2.21,22.56,8.45,22.62,21.25C270.37,451.26,261,460.91,247.58,460.88Zm-13.92-23a14.06,14.06,0,0,0,13.69,14.44c6.83.17,14.46-5.62,14.5-14.13,0-7.48-7.15-14.82-14.19-14.56A14.59,14.59,0,0,0,233.66,437.85Z"/><path class="cls-3" d="M38.88,114.45c-.08,0-.2.07-.24,0s-.08-.17-.11-.26l.4-.07Z"/><path class="cls-3" d="M216.14,123.38l.57-2.18,2.57,1.48C218.77,125.3,217.34,123.83,216.14,123.38Z"/><path class="cls-6" d="M238.37,366.33c-.56-8.34.34-18.15,4.9-27.37a47.22,47.22,0,0,1,21-21.58c20.3-10.59,28.43-31.94,19.87-52-7-16.47-25.56-26.72-42.68-23.6-19.17,3.49-32.8,18.9-33.65,37.8a15.25,15.25,0,0,1-2,7.17,8.56,8.56,0,0,1-9.8,3.34,9.35,9.35,0,0,1-6.73-9.18c-.59-27.2,20.61-52.63,47.63-57.14,31.66-5.29,60.15,13.48,67.71,44.59a57.59,57.59,0,0,1-29,63.86c-13.17,6.9-19.2,17.26-18.71,31.88.19,5.48,0,11,0,16.47,0,4.19-2.14,7-5.83,8.64A8.81,8.81,0,0,1,241,386.85a13.07,13.07,0,0,1-2.48-6.53C238.08,376.27,238.37,372.15,238.37,366.33Z"/><path class="cls-6" d="M233.66,437.85a14.59,14.59,0,0,1,14-14.25c7-.26,14.22,7.08,14.19,14.56,0,8.51-7.67,14.3-14.5,14.13A14.06,14.06,0,0,1,233.66,437.85Z"/></g></g></svg>