<svg xmlns="http://www.w3.org/2000/svg" viewBox="0 0 371.38 291.07"><title>Asset 1</title><g id="Layer_2" data-name="Layer 2"><g id="Layer_1-2" data-name="Layer 1"><path d="M370,269.55Q336.22,147.74,302.42,25.92c-.31-1.12-.73-2.21-1.17-3.56L241.17,39l6.44,23.76H180.55V29.89H117.93V54H84.08V0H0V291H259.23V107L260,107q25.55,92,51.13,184.11c12.69-3.54,24.77-7,36.88-10.26,7.78-2.12,15.61-4.07,23.42-6.1v-1.45C370.93,272,370.39,270.81,370,269.55ZM12,12.08H72V22.76H12ZM12,35.32H72V255.69H12Zm60.1,243.52H12.06V268.08H72.12Zm45.7,0H84.42V66.49h33.4ZM130.35,41.92h38.12V71.19H130.35Zm0,41.67h38.1v6.47h-38.1ZM168.5,278.92H130.31v-9.07H168.5Zm0-21.63H130.44v-136h38.08Zm0-148.37H130.37v-6.5h38.19Zm78.51,170H180.85V75.28h66.22Zm8.8-231.46L293,37.08C296.91,51,300.74,64.76,304.7,79L267.54,89.28C263.65,75.33,259.82,61.59,255.87,47.44Zm14.9,53.42,37.09-10.3,3.33,11.85L274,112.76Zm48.64,175.42L277.23,124.33,314.42,114c14.09,50.73,28.09,101.17,42.19,151.94Z"/><path d="M195,264.17h38.16v-11.7H195Z"/><path d="M233.09,88.26H194.93V99.71h38.16Z"/><path d="M233.12,109.42H194.77v11.42h38.35Z"/><path d="M194.88,141.9h38.24V130.5H194.88Z"/><path d="M95.36,165.72h11.56v-54H95.36Z"/><path d="M95.35,254.63h11.59V209.45H95.35Z"/><path d="M106.9,80.21H95.33v20.72H106.9Z"/><path d="M95.33,197.58h11.6V177.74H95.33Z"/></g></g></svg>