<?xml version="1.0" encoding="utf-8"?>
<!-- Generator: Adobe Illustrator 22.1.0, SVG Export Plug-In . SVG Version: 6.00 Build 0)  -->
<svg version="1.1" id="Layer_1" xmlns="http://www.w3.org/2000/svg" xmlns:xlink="http://www.w3.org/1999/xlink" x="0px" y="0px"
	 viewBox="0 0 3789 544" style="enable-background:new 0 0 3789 544;" xml:space="preserve">
<style type="text/css">
	.st0{fill:none;}
	path{fill:white;}
</style>
<g>
	<rect y="199" class="st0" width="3789" height="432"/>
	<path d="M730.6,177.9l4.8,7.1c-15,2.2-26.2,6.5-33.6,13s-11.1,16-11.1,28.6c0,6.9,0.7,16.9,2.1,29.9c2.6,22.4,3.9,40.7,3.9,54.9
		c0,19.1-4.3,35.9-12.8,50.3c-8.5,14.4-28.5,35-59.9,61.8c20.6-6.7,39-10.1,55.4-10.1c15,0,28.4,2.1,40.3,6.2
		c11.9,4.1,25.1,11.3,39.7,21.4l19.6-17.6l5.7,6.8l-50.7,43.6c-13.8-10.3-27.5-17.8-41.3-22.6c-13.7-4.8-29.8-7.1-48.1-7.1
		c-17,0-33.1,2-48.1,6.1c-15,4-34.4,11.9-58,23.6l-4-5.6c23.6-17.4,39.2-31.4,46.9-41.9c7.7-10.5,11.5-20.3,11.5-29.6
		c0-8.8-2.8-16.2-8.4-22.1c-5.6-5.9-12-8.9-19.3-8.9c-3.6,0-7.8,1.1-12.5,3.3l-6-5.8c4.8-4.3,9.2-7.2,13.3-8.9
		c4-1.7,8.7-2.5,14.1-2.5c3.1,0,6.3,0.4,9.6,1.3c3.3,0.8,6.5,2.2,9.8,4c0.3-3,0.4-5.4,0.4-7.2c0-8.3-3.1-15.6-9.4-21.7
		c-6.2-6.1-13.9-9.2-23-9.2c-6.5,0-13.2,2.6-20.1,7.8l-6.9-4.8c4.8-6.3,9.8-10.8,14.8-13.4c8.1-4.3,16.7-6.4,25.8-6.4
		c2,0,4.1,0.2,6.4,0.5c2.3,0.4,4.8,0.9,7.4,1.6c-0.8-8-1.2-14.6-1.2-20c0-15.8,2.4-29.2,7.1-40.3c4.8-11.1,12.9-22.6,24.5-34.6
		c-12.5,4.4-23.1,6.6-31.8,6.6c-8.6,0-19.4-2-32.6-6.1c-6-1.8-10.7-2.7-14.2-2.7c-6.8,0-12.4,2.1-17.1,6.4
		c-4.6,4.3-6.9,9.4-6.9,15.4c0,2.2,0.6,4.8,1.8,7.8l-8.5,3c-1.5-6.1-2.2-11.2-2.2-15.2c0-12.6,4.9-23.6,14.6-32.9
		c9.7-9.3,21.4-14,35.1-14c6.2,0,15.9,2.3,28.9,7s23.2,7,30.5,7c13.3,0,25.9-4.7,37.8-14.1l5.8,7.1c-13,9.8-22,19.4-27.3,28.9
		c-5.2,9.5-7.9,21-7.9,34.6c0,10,0.6,21.6,2,34.8c2.6,24.7,3.9,41.5,3.9,50.4c0,18.9-3,36-9.1,51.3c-6.1,15.3-17.1,33-33.1,53
		c24.3-17.3,41.7-35.1,52.3-53.3c10.6-18.2,15.9-38.7,15.9-61.5c0-12.9-0.9-27.1-2.7-42.5c-1.8-15.4-2.7-28.4-2.7-39
		c0-9.4,2.2-18.6,6.6-27.7c4.4-9.1,10.2-16.3,17.5-21.5c7.3-5.2,15.3-9,24.1-11.3C706.9,179.3,717,178.3,730.6,177.9z"/>
	<path d="M841.4,265.6l34.7,28.8l-15.4,14.9v106.3c0,11.2,0.9,18.5,2.8,21.9c1.9,3.4,3.8,5.1,5.8,5.1c1.4,0,2.7-0.3,3.9-1
		c1.6-0.9,5.1-3.5,10.2-7.8l4.8,6.1l-41.9,34c-10.5-7.4-17.2-14.4-20.2-21c-3-6.6-4.5-18.1-4.5-34.5v-109l-14.6-14.9L841.4,265.6z
		 M856.1,198.8h24.8L854,241h-7.8L856.1,198.8z"/>
	<path d="M1002.5,265.6l60.8,28.5l36.4-18.4v43.9l-35.2-6.8v88.7c0,14.3,0.8,24,2.5,29.1c2.2,6.6,6.8,14.3,13.9,23
		c11.3,14.5,17,24.8,17,31.1s-3,12.2-8.9,18c-5.9,5.7-21.8,14.6-47.4,26.6c-8.7-3.1-17.1-5.4-25-6.9c-8-1.5-15.5-2.2-22.7-2.2
		c-17.2,0-37.1,3.1-59.6,9.2l-2.7-6.6l46.2-54l-46.2-33.2V294.1C957.3,288.6,981,279.1,1002.5,265.6z M966,493.9
		c16.9-2.7,30.6-4.1,41-4.1c9.4,0,18.8,1.2,28.4,3.7c9.6,2.5,19.2,6.3,29,11.3l8-5.1c-17.6-16.4-29.5-29.6-35.8-39.8
		s-10.2-21.2-11.9-33.2L966,493.9z M1024.7,312.5l-53.3-18.4v128l28.8,20.9l24.5-29.2V312.5z"/>
	<path d="M1198.1,193.9l2,4.7c-9.3,6-15.7,12.4-19.1,19.1c-3.4,6.8-5.1,17.5-5.1,32.2v63.7l60.4-48c12.8,8.3,21.2,16.4,25.1,24.1
		c3.9,7.8,5.8,20.9,5.8,39.6v88.5c0,16.9-1.8,29.3-5.3,37.1c-5.6,12.8-16,24.8-31.1,36c-19.8,14.9-45,27.7-75.6,38.5l-2.7-7.4
		c24.9-10.3,42.2-19.7,52-28.1c9.8-8.5,16.1-17.5,19.1-27c2.2-7.2,3.3-25.8,3.3-55.9v-81.8c0-9.1-0.9-15.4-2.7-18.9
		c-2.7-4.8-7.8-9.6-15.1-14.3l-33.4,27v108.7l13.9,14l-34.3,28l-34.9-28l15.4-15.3V252.9c0-16.1-1.4-27.2-4.3-33.2
		c-2.8-6-8.5-11.4-16.8-16.2l2.1-4.9c6.9,2,12.4,4.1,16.6,6.5c4.2,2.4,9.6,6.6,16.4,12.6c8-7.5,15.6-13.1,22.9-16.6
		S1188.6,195.2,1198.1,193.9z"/>
	<path d="M1294.4,286.9l54.5-67.2h5.7l-2,53.9h39.3v21.9h-39.3v131.6l21.9,16.2l12.5-9.8l4.9,5.9l-43.1,34.4
		c-14.6-15-31.2-25.1-49.7-30.5v-3.9c5.2-3.5,8.7-7.2,10.4-11c2.2-4.8,3.3-11.8,3.3-20.9V295.5h-18.4V286.9z"/>
	<path d="M1674.2,181.8c22.6,2.3,40.3,5.6,53.1,9.8c19.3,6.1,36.1,14.8,50.6,26.1c14.5,11.3,25.8,24.6,34,39.9
		c8.1,15.4,12.2,32,12.2,50c0,16.7-4.3,33.1-12.9,49.2c-8.6,16.1-23.3,34.3-44.2,54.5c-20.9,20.2-42,35.6-63.2,46.4
		c-21.2,10.7-42,16.1-62.3,16.1c-21.7,0-42.8-5.4-63.1-16.2c-20.3-10.8-36-25.7-47.1-44.6c-11.1-18.9-16.6-39.9-16.6-62.8
		c0-13.1,1.4-25.8,4.1-38c2.7-12.2,7.5-26.3,14.3-42.3c12.9-6.4,28-15.2,45.3-26.4c9.3-6.1,32.6-21,70.2-44.5
		C1656.1,194.3,1664.7,188.6,1674.2,181.8z M1593,245.1c-11.1,8.2-19,15.1-23.8,20.7c-6.4,7.4-11.7,16.5-16,27.1
		c-4.3,10.7-6.4,22.4-6.4,35.1c0,27.6,10.6,53.3,31.8,77.1c6-5.6,9.9-11.2,11.8-16.7c1.8-5.5,2.7-16.4,2.7-32.5V245.1z
		 M1659.2,220.7c-8.9-0.5-17.6-0.9-26.2-1.2V335c0,12.5-0.8,21.2-2.5,26.2c-1.7,5-4.8,10.1-9.4,15.4l-36.1,34.8
		c12.2,10.4,23.8,17.8,34.6,22.1c10.9,4.4,24,7.1,39.5,8.1V220.7z M1667.6,272.8c9.4,8.1,18.3,13.9,26.7,17.5
		c8.4,3.6,17.5,5.4,27.4,5.4c9.1,0,17.5-1.8,25.3-5.4c7.7-3.6,15.9-9.4,24.5-17.5c-7.4-9.6-14.3-16.8-20.7-21.5
		c-11.7-8.5-24.3-15.1-37.8-19.9c-13.5-4.8-28.6-8.2-45.4-10.2V272.8z M1667.6,354.3c9.2-9.1,17.9-15.5,25.9-19.1
		c8-3.6,17.3-5.5,27.8-5.5c11.1,0,21,2,29.9,5.9c8.9,3.9,18.4,10.7,28.5,20.3c3.5-12.9,5.3-24.1,5.3-33.6c0-8.7-0.7-16.3-2-22.9
		c-1-4.8-3.2-10.8-6.4-18c-11.3,9.1-21.2,15.3-29.5,18.7c-8.3,3.3-17.6,5-27.7,5c-9.2,0-17.7-1.5-25.4-4.6
		c-7.7-3.1-16.5-8.6-26.4-16.5V354.3z M1667.6,441.6c16.4-0.9,29.8-3.6,40-8c15.6-6.6,29.2-15.8,40.6-27.4
		c11.5-11.7,20.9-25.7,28.3-42.3c-18-16.9-36.3-25.4-55.1-25.4c-10.9,0-21.4,2.9-31.3,8.8c-7.3,4.2-14.8,11.2-22.7,21.1V441.6z"/>
	<path d="M1945.2,203.3l-6.2,32.4l-35.8-8.2v47.1h30.3v21.9h-30.3v131.1l22.1,16.6l15.2-12.3l4.5,5.5l-45.4,36.5
		c-16-14.6-32.6-24.5-49.5-29.7l-1.2-4.7c4.7-3,7.9-6.1,9.8-9.4c3.1-5.3,4.7-11.8,4.7-19.3V296.5H1845v-21.9h18.4v-47.1
		c19.7-13.3,34.5-24.5,44.4-33.6L1945.2,203.3z"/>
	<path d="M2178.5,181.8l88.1,29.5l6.5-11.5c2.4-4.2,4-6.7,5-7.7s2.1-1.5,3.4-1.5s2.4,0.5,3.3,1.4s1.3,1.9,1.3,3.1
		c0,1.8-1.6,5.5-4.8,10.9l-42.6,72.3l33.8-2.2c10.2-0.4,22,1,35.4,4.3c13.5,3.3,25.1,8.3,34.8,15.1c9.7,6.8,17.3,14.9,22.9,24.2
		c5.5,9.3,8.3,19.6,8.3,30.8c0,20.6-8.6,40.8-25.9,60.6c-17.2,19.9-47.9,40.8-92,62.8c-15.5-5.7-33.5-11.8-54.1-18.1
		c-36.7,16.8-66.8,25.1-90.3,25.1c-16.8,0-29.7-3.7-38.8-11c-9.1-7.4-13.6-15.9-13.6-25.5c0-10.3,5.5-19.7,16.4-28.2
		c10.9-8.5,27.1-12.8,48.6-12.8c8.5,0,18.9,1,31.4,3.1l15.9-28l-28.6,2.2c-6.8,0.1-15.9-0.8-27.3-2.8c-11.5-2-20.9-5.3-28.2-9.9
		c-7.4-4.6-12.9-10.2-16.5-16.8c-3.6-6.6-5.5-13.6-5.5-20.9c0-11.6,4.1-21.9,12.3-30.9c5.2-5.7,13.8-10.9,25.8-15.4l-0.2-2.3
		c0-12.1,5.4-26,16.1-41.7C2130.3,224.2,2149.9,204.9,2178.5,181.8z M2188.3,451.1c-32.4-10.8-58.9-16.2-79.7-16.2
		c-10.7,0-19.1,2.3-25.4,7c-4.3,3.1-6.4,7-6.4,11.5c0,4.8,2.1,8.7,6.4,11.5c6.8,4.7,16.6,7,29.5,7
		C2132.6,472,2157.7,465.1,2188.3,451.1z M2207.9,314.5c-16.9,2.4-33.4,3.6-49.3,3.6c-17.7,0-30.3-2.1-37.7-6.3
		c-7.4-4.2-13-10.7-16.6-19.5c-9.4,6-14.1,13.4-14.1,22.3c0,8.1,3.6,14.7,10.9,19.9c9.6,6.8,26.1,10.2,49.4,10.2c11,0,24.9-1,41.8-3
		L2207.9,314.5z M2248.8,242.5c-20.4-10.1-36.3-16.9-47.8-20.4s-21.5-5.2-30.2-5.2c-12.2,0-22.2,3.5-29.8,10.4
		c-7.7,6.9-11.5,15-11.5,24.2c0,9.1,3.3,16.6,9.9,22.5c6.6,5.9,16.5,8.8,29.8,8.8c8.7,0,28.4-1.3,59-3.9L2248.8,242.5z
		 M2164.6,408.1c12.3,2.7,22.3,5.2,30,7.5c7.8,2.3,21.5,6.9,41.4,13.8c31.5-14.4,47.3-28.3,47.2-41.7c0-4.2-1.8-8-5.5-11.3
		c-3.7-3.4-8.4-5.1-14-5.1c-7,0-15.6,0.6-25.8,1.8c-28.4,3-47,4.5-56,4.5L2164.6,408.1z M2202.9,341c31.1-3.1,52.7-4.6,64.8-4.6
		c16.5,0,29.2,3.8,37.9,11.2s13.1,16.5,13.1,26.9c0,9.1-4.3,18-12.8,26.6c-8.5,8.6-26.8,19.3-54.9,32.2l39.7,10.5
		c17.1-10.5,30.3-21.9,39.5-34.2s13.9-25.7,13.9-40.4c0-9.6-2.9-19.1-8.7-28.4s-14.7-16.7-26.7-22.3c-12-5.5-25.9-8.3-41.5-8.3
		c-12.7,0-28.9,1.2-48.6,3.6L2202.9,341z"/>
	<path d="M2467.4,265.6l50.7,29l-20.8,30.4l-38.2-22.1v124.6l38.4,17.2l20.4-14.8l2.1,8.4l-48.3,35.5c-12.5-7-23.1-12.2-32-15.5
		s-19.7-6.2-32.6-8.7v-4.7c4.6-3.1,7.5-6.5,9-10.2c2.1-5.1,3.1-13,3.1-23.8V299.8C2435.4,292.4,2451.5,281,2467.4,265.6z"/>
	<path d="M2574.4,265.6l34.7,28.8l-15.4,14.9v106.3c0,11.2,0.9,18.5,2.8,21.9c1.9,3.4,3.8,5.1,5.8,5.1c1.4,0,2.7-0.3,3.9-1
		c1.6-0.9,5.1-3.5,10.2-7.8l4.8,6.1l-41.9,34c-10.5-7.4-17.2-14.4-20.2-21c-3-6.6-4.5-18.1-4.5-34.5v-109l-14.6-14.9L2574.4,265.6z
		 M2589.1,198.8h24.8l-27,42.2h-7.8L2589.1,198.8z"/>
	<path d="M2734.4,265.6l55.1,64.3l-87.5,61.3v35.5l45.3,18l30.7-20.9l4.3,5.9l-63.2,44.1c-12.9-6.9-23.5-11.8-31.9-14.8
		c-8.3-3-20.2-6.1-35.6-9.4v-4.9c4.4-2.6,7.4-5.8,8.9-9.7c1.5-3.8,2.2-12.1,2.2-24.9V298.4c12.2-4.4,22.4-8.5,30.5-12.1
		C2699.1,283.6,2712.8,276.7,2734.4,265.6z M2704.8,288.1l-2.7,1.4v88.7l51.4-36.1L2704.8,288.1z"/>
	<path d="M2930.2,265.6l26.7,29.3l19-18.4l5.6,5.3c-9.2,8.4-14.8,14.7-16.8,19c-2.6,5.7-3.9,13.7-3.9,23.7v93.1
		c0,8.6,1.4,15,4.1,19.2c1.7,2.7,3.6,4.1,5.7,4.1c1.8,0,6.1-2.5,12.9-7.6l4.8,6.1l-41.9,34.4c-10.8-8.1-17.8-15.4-20.9-21.6
		c-3.1-6.3-4.6-16.4-4.6-30.4V314.9l-17.3-18.2l-33.3,26.7v108.4l14.6,14l-34.5,28l-34.7-28l14.6-14v-99.7c0-14.2-1.4-23.7-4.3-28.7
		c-2-3.4-4.2-5.1-6.7-5.1c-2.6,0-6.5,2.5-11.8,7.6l-4.8-6.1l41.5-34.4c11.5,8.6,18.7,15.3,21.6,20.3c2.9,5,4.3,11.9,4.3,20.7v7
		L2930.2,265.6z"/>
	<path d="M3075.2,265.6l50.7,29L3105,325l-38.2-22.1v124.6l38.4,17.2l20.4-14.8l2.1,8.4l-48.3,35.5c-12.5-7-23.1-12.2-32-15.5
		s-19.7-6.2-32.6-8.7v-4.7c4.6-3.1,7.5-6.5,9-10.2c2.1-5.1,3.1-13,3.1-23.8V299.8C3043.3,292.4,3059.3,281,3075.2,265.6z"/>
	<path d="M3229.9,265.6l55.1,64.3l-87.5,61.3v35.5l45.3,18l30.7-20.9l4.3,5.9l-63.2,44.1c-12.9-6.9-23.5-11.8-31.9-14.8
		c-8.3-3-20.2-6.1-35.6-9.4v-4.9c4.4-2.6,7.4-5.8,8.9-9.7c1.5-3.8,2.2-12.1,2.2-24.9V298.4c12.2-4.4,22.4-8.5,30.5-12.1
		C3194.6,283.6,3208.3,276.7,3229.9,265.6z M3200.3,288.1l-2.7,1.4v88.7L3249,342L3200.3,288.1z"/>
</g>
<g>
	<rect x="0" y="27.5" class="st0" width="3789" height="248"/>
	<path d="M27.6,90.7l11.6-1c0.5,4.7,1.8,8.5,3.8,11.5c2,3,5.1,5.4,9.4,7.2c4.2,1.8,9,2.8,14.3,2.8c4.7,0,8.8-0.7,12.4-2.1
		c3.6-1.4,6.3-3.3,8-5.7c1.8-2.4,2.6-5.1,2.6-8c0-2.9-0.8-5.5-2.5-7.6c-1.7-2.2-4.5-4-8.4-5.5c-2.5-1-8-2.5-16.6-4.5
		c-8.5-2.1-14.5-4-18-5.8c-4.4-2.3-7.8-5.2-9.9-8.7c-2.2-3.4-3.3-7.3-3.3-11.6c0-4.7,1.3-9.1,4-13.2c2.7-4.1,6.6-7.2,11.7-9.3
		C51.9,27,57.6,26,63.9,26c6.9,0,13,1.1,18.2,3.3s9.3,5.5,12.2,9.8c2.8,4.3,4.4,9.2,4.6,14.7l-11.8,0.9c-0.6-5.9-2.8-10.3-6.4-13.3
		c-3.7-3-9.1-4.5-16.2-4.5c-7.4,0-12.9,1.4-16.3,4.1c-3.4,2.7-5.1,6-5.1,9.9c0,3.3,1.2,6.1,3.6,8.3c2.4,2.2,8.6,4.4,18.6,6.6
		c10,2.3,16.9,4.2,20.6,5.9c5.4,2.5,9.4,5.7,12,9.5c2.6,3.8,3.9,8.2,3.9,13.2c0,5-1.4,9.6-4.3,14c-2.8,4.4-6.9,7.8-12.2,10.2
		c-5.3,2.4-11.3,3.6-17.9,3.6c-8.4,0-15.5-1.2-21.2-3.7c-5.7-2.5-10.2-6.1-13.4-11.1C29.5,102.5,27.8,96.9,27.6,90.7z"/>
	<path d="M161,95.9l11.2,1.5c-1.2,7.7-4.4,13.8-9.4,18.2c-5.1,4.4-11.3,6.6-18.6,6.6c-9.2,0-16.6-3-22.2-9c-5.6-6-8.4-14.7-8.4-25.9
		c0-7.3,1.2-13.6,3.6-19.1s6.1-9.6,11-12.3c4.9-2.7,10.3-4.1,16.1-4.1c7.3,0,13.3,1.9,18,5.6c4.7,3.7,7.6,9,9,15.8l-11.1,1.7
		c-1.1-4.5-2.9-7.9-5.6-10.2c-2.7-2.3-5.9-3.4-9.7-3.4c-5.8,0-10.4,2.1-14,6.2c-3.6,4.1-5.4,10.7-5.4,19.6c0,9.1,1.7,15.6,5.2,19.7
		c3.5,4.1,8,6.2,13.6,6.2c4.5,0,8.2-1.4,11.2-4.1C158.3,105.8,160.2,101.6,161,95.9z"/>
	<path d="M182.1,40.7V27.5h11.4v13.1H182.1z M182.1,120.6V53.2h11.4v67.4H182.1z"/>
	<path d="M257.1,98.9l11.8,1.5c-1.9,6.9-5.3,12.3-10.3,16.1c-5,3.8-11.5,5.7-19.3,5.7c-9.9,0-17.7-3-23.5-9.1
		c-5.8-6.1-8.7-14.6-8.7-25.5c0-11.3,2.9-20.1,8.8-26.4c5.8-6.3,13.4-9.4,22.7-9.4c9,0,16.4,3.1,22.1,9.2c5.7,6.1,8.6,14.8,8.6,25.9
		c0,0.7,0,1.7-0.1,3h-50.3c0.4,7.4,2.5,13.1,6.3,17c3.8,3.9,8.5,5.9,14.1,5.9c4.2,0,7.8-1.1,10.7-3.3
		C253,107.2,255.3,103.7,257.1,98.9z M219.5,80.4h37.6c-0.5-5.7-1.9-9.9-4.3-12.8c-3.6-4.4-8.4-6.6-14.2-6.6
		c-5.2,0-9.7,1.8-13.2,5.3C221.9,69.8,219.9,74.5,219.5,80.4z"/>
	<path d="M283.2,120.6V53.2h10.3v9.6c5-7.4,12.1-11.1,21.5-11.1c4.1,0,7.8,0.7,11.2,2.2c3.4,1.5,6,3.4,7.6,5.7
		c1.7,2.4,2.9,5.2,3.6,8.4c0.4,2.1,0.6,5.8,0.6,11.1v41.5h-11.4v-41c0-4.7-0.4-8.1-1.3-10.4c-0.9-2.3-2.5-4.1-4.7-5.5
		c-2.3-1.4-4.9-2.1-8-2.1c-4.9,0-9.1,1.5-12.6,4.6c-3.5,3.1-5.3,9-5.3,17.6v36.8H283.2z"/>
	<path d="M399.5,95.9l11.2,1.5c-1.2,7.7-4.4,13.8-9.4,18.2c-5.1,4.4-11.3,6.6-18.6,6.6c-9.2,0-16.6-3-22.2-9
		c-5.6-6-8.4-14.7-8.4-25.9c0-7.3,1.2-13.6,3.6-19.1s6.1-9.6,11-12.3c4.9-2.7,10.3-4.1,16.1-4.1c7.3,0,13.3,1.9,18,5.6
		c4.7,3.7,7.6,9,9,15.8l-11.1,1.7c-1.1-4.5-2.9-7.9-5.6-10.2c-2.7-2.3-5.9-3.4-9.7-3.4c-5.8,0-10.4,2.1-14,6.2
		c-3.6,4.1-5.4,10.7-5.4,19.6c0,9.1,1.7,15.6,5.2,19.7c3.5,4.1,8,6.2,13.6,6.2c4.5,0,8.2-1.4,11.2-4.1
		C396.8,105.8,398.7,101.6,399.5,95.9z"/>
	<path d="M466.7,98.9l11.8,1.5c-1.9,6.9-5.3,12.3-10.3,16.1c-5,3.8-11.5,5.7-19.3,5.7c-9.9,0-17.7-3-23.5-9.1
		c-5.8-6.1-8.7-14.6-8.7-25.5c0-11.3,2.9-20.1,8.8-26.4c5.8-6.3,13.4-9.4,22.7-9.4c9,0,16.4,3.1,22.1,9.2c5.7,6.1,8.6,14.8,8.6,25.9
		c0,0.7,0,1.7-0.1,3h-50.3c0.4,7.4,2.5,13.1,6.3,17c3.8,3.9,8.5,5.9,14.1,5.9c4.2,0,7.8-1.1,10.7-3.3
		C462.6,107.2,464.9,103.7,466.7,98.9z M429.1,80.4h37.6c-0.5-5.7-1.9-9.9-4.3-12.8c-3.6-4.4-8.4-6.6-14.2-6.6
		c-5.2,0-9.7,1.8-13.2,5.3C431.5,69.8,429.5,74.5,429.1,80.4z"/>
	<path d="M531.7,120.6V62.1h-10.1v-8.9h10.1V46c0-4.5,0.4-7.9,1.2-10.1c1.1-3,3-5.4,5.8-7.2c2.8-1.8,6.7-2.8,11.6-2.8
		c3.2,0,6.8,0.4,10.7,1.1l-1.7,10c-2.4-0.4-4.6-0.6-6.7-0.6c-3.5,0-5.9,0.7-7.4,2.2c-1.4,1.5-2.2,4.3-2.2,8.3v6.2h13.1v8.9H543v58.5
		H531.7z"/>
	<path d="M560.8,86.9c0-12.5,3.5-21.7,10.4-27.7c5.8-5,12.9-7.5,21.2-7.5c9.3,0,16.8,3,22.7,9.1c5.9,6.1,8.8,14.5,8.8,25.2
		c0,8.7-1.3,15.5-3.9,20.5c-2.6,5-6.4,8.8-11.4,11.6c-5,2.8-10.4,4.1-16.3,4.1c-9.4,0-17.1-3-22.9-9.1
		C563.7,107,560.8,98.3,560.8,86.9z M572.5,86.9c0,8.6,1.9,15.1,5.6,19.4c3.8,4.3,8.5,6.4,14.2,6.4c5.7,0,10.4-2.2,14.2-6.5
		c3.8-4.3,5.6-10.9,5.6-19.7c0-8.3-1.9-14.7-5.7-18.9c-3.8-4.3-8.5-6.4-14.1-6.4c-5.7,0-10.5,2.1-14.2,6.4
		C574.4,71.8,572.5,78.3,572.5,86.9z"/>
	<path d="M637.2,120.6V53.2h10.3v10.2c2.6-4.8,5-7.9,7.3-9.5s4.7-2.3,7.3-2.3c3.9,0,7.8,1.2,11.7,3.7l-3.9,10.6
		c-2.8-1.7-5.6-2.5-8.4-2.5c-2.5,0-4.7,0.8-6.7,2.3c-2,1.5-3.4,3.6-4.3,6.3c-1.3,4.1-1.9,8.5-1.9,13.3v35.3H637.2z"/>
	<path d="M717.8,120.6V27.5h18.5l22,65.9c2,6.1,3.5,10.7,4.4,13.8c1.1-3.4,2.7-8.4,5-14.9l22.3-64.7h16.6v93.1h-11.9V42.7l-27,77.9
		h-11.1l-26.9-79.2v79.2H717.8z"/>
	<path d="M869,112.3c-4.2,3.6-8.3,6.1-12.2,7.6c-3.9,1.5-8.1,2.2-12.6,2.2c-7.4,0-13.1-1.8-17.1-5.4c-4-3.6-6-8.2-6-13.9
		c0-3.3,0.8-6.3,2.3-9c1.5-2.7,3.5-4.9,5.9-6.6c2.4-1.7,5.2-2.9,8.2-3.7c2.2-0.6,5.6-1.2,10.2-1.7c9.2-1.1,16-2.4,20.4-3.9
		c0-1.6,0.1-2.6,0.1-3c0-4.7-1.1-7.9-3.2-9.8c-2.9-2.6-7.3-3.9-13-3.9c-5.4,0-9.3,0.9-11.9,2.8c-2.6,1.9-4.5,5.2-5.7,10l-11.2-1.5
		c1-4.8,2.7-8.6,5-11.6c2.3-2.9,5.7-5.2,10.1-6.8c4.4-1.6,9.5-2.4,15.3-2.4c5.8,0,10.4,0.7,14,2c3.6,1.4,6.2,3.1,7.9,5.1
		c1.7,2.1,2.9,4.6,3.6,7.8c0.4,1.9,0.6,5.5,0.6,10.5v15.2c0,10.6,0.2,17.3,0.7,20.2c0.5,2.8,1.4,5.5,2.9,8.1h-11.9
		C870.1,118.2,869.4,115.5,869,112.3z M868.1,86.8c-4.1,1.7-10.4,3.1-18.7,4.3c-4.7,0.7-8,1.4-10,2.3c-1.9,0.8-3.4,2.1-4.5,3.7
		c-1.1,1.6-1.6,3.4-1.6,5.4c0,3,1.2,5.6,3.5,7.6c2.3,2,5.7,3,10.1,3c4.4,0,8.3-1,11.7-2.9c3.4-1.9,5.9-4.6,7.6-7.9
		c1.2-2.6,1.8-6.4,1.8-11.4V86.8z"/>
	<path d="M897.3,120.6V53.2h10.3v9.6c5-7.4,12.1-11.1,21.5-11.1c4.1,0,7.8,0.7,11.2,2.2c3.4,1.5,6,3.4,7.6,5.7
		c1.7,2.4,2.9,5.2,3.6,8.4c0.4,2.1,0.6,5.8,0.6,11.1v41.5h-11.4v-41c0-4.7-0.4-8.1-1.3-10.4c-0.9-2.3-2.5-4.1-4.7-5.5
		c-2.3-1.4-4.9-2.1-8-2.1c-4.9,0-9.1,1.5-12.6,4.6c-3.5,3.1-5.3,9-5.3,17.6v36.8H897.3z"/>
	<path d="M1081.4,148V26h10v122H1081.4z"/>
	<path d="M1115.1,148V26h10v122H1115.1z"/>
	<path d="M1251.2,90.7l11.6-1c0.5,4.7,1.8,8.5,3.8,11.5c2,3,5.1,5.4,9.4,7.2c4.2,1.8,9,2.8,14.3,2.8c4.7,0,8.8-0.7,12.4-2.1
		c3.6-1.4,6.3-3.3,8-5.7c1.8-2.4,2.6-5.1,2.6-8c0-2.9-0.8-5.5-2.5-7.6c-1.7-2.2-4.5-4-8.4-5.5c-2.5-1-8-2.5-16.6-4.5
		c-8.5-2.1-14.5-4-18-5.8c-4.4-2.3-7.8-5.2-9.9-8.7c-2.2-3.4-3.3-7.3-3.3-11.6c0-4.7,1.3-9.1,4-13.2c2.7-4.1,6.6-7.2,11.7-9.3
		c5.1-2.1,10.8-3.2,17.1-3.2c6.9,0,13,1.1,18.3,3.3c5.3,2.2,9.3,5.5,12.2,9.8c2.8,4.3,4.4,9.2,4.6,14.7l-11.8,0.9
		c-0.6-5.9-2.8-10.3-6.4-13.3c-3.7-3-9.1-4.5-16.2-4.5c-7.4,0-12.9,1.4-16.3,4.1c-3.4,2.7-5.1,6-5.1,9.9c0,3.3,1.2,6.1,3.6,8.3
		c2.4,2.2,8.6,4.4,18.6,6.6c10,2.3,16.9,4.2,20.6,5.9c5.4,2.5,9.4,5.7,12,9.5c2.6,3.8,3.9,8.2,3.9,13.2c0,5-1.4,9.6-4.3,14
		c-2.8,4.4-6.9,7.8-12.2,10.2c-5.3,2.4-11.3,3.6-17.9,3.6c-8.4,0-15.5-1.2-21.2-3.7c-5.7-2.5-10.2-6.1-13.4-11.1
		C1253,102.5,1251.3,96.9,1251.2,90.7z"/>
	<path d="M1384.6,95.9l11.2,1.5c-1.2,7.7-4.4,13.8-9.4,18.2s-11.3,6.6-18.6,6.6c-9.2,0-16.6-3-22.2-9s-8.4-14.7-8.4-25.9
		c0-7.3,1.2-13.6,3.6-19.1s6.1-9.6,11-12.3s10.3-4.1,16.1-4.1c7.3,0,13.3,1.9,18,5.6c4.7,3.7,7.6,9,9,15.8l-11.1,1.7
		c-1.1-4.5-2.9-7.9-5.6-10.2s-5.9-3.4-9.7-3.4c-5.8,0-10.4,2.1-14,6.2c-3.6,4.1-5.4,10.7-5.4,19.6c0,9.1,1.7,15.6,5.2,19.7
		c3.5,4.1,8,6.2,13.6,6.2c4.5,0,8.2-1.4,11.2-4.1C1381.9,105.8,1383.8,101.6,1384.6,95.9z"/>
	<path d="M1405.7,40.7V27.5h11.4v13.1H1405.7z M1405.7,120.6V53.2h11.4v67.4H1405.7z"/>
	<path d="M1480.6,98.9l11.8,1.5c-1.9,6.9-5.3,12.3-10.3,16.1c-5,3.8-11.5,5.7-19.3,5.7c-9.9,0-17.7-3-23.5-9.1
		c-5.8-6.1-8.7-14.6-8.7-25.5c0-11.3,2.9-20.1,8.8-26.4c5.8-6.3,13.4-9.4,22.7-9.4c9,0,16.4,3.1,22.1,9.2c5.7,6.1,8.6,14.8,8.6,25.9
		c0,0.7,0,1.7-0.1,3h-50.3c0.4,7.4,2.5,13.1,6.3,17c3.8,3.9,8.5,5.9,14.1,5.9c4.2,0,7.8-1.1,10.7-3.3
		C1476.5,107.2,1478.9,103.7,1480.6,98.9z M1443.1,80.4h37.6c-0.5-5.7-1.9-9.9-4.3-12.8c-3.6-4.4-8.4-6.6-14.2-6.6
		c-5.2,0-9.7,1.8-13.2,5.3C1445.5,69.8,1443.5,74.5,1443.1,80.4z"/>
	<path d="M1506.8,120.6V53.2h10.3v9.6c5-7.4,12.1-11.1,21.5-11.1c4.1,0,7.8,0.7,11.2,2.2c3.4,1.5,6,3.4,7.6,5.7
		c1.7,2.4,2.9,5.2,3.6,8.4c0.4,2.1,0.6,5.8,0.6,11.1v41.5h-11.4v-41c0-4.7-0.4-8.1-1.3-10.4c-0.9-2.3-2.5-4.1-4.7-5.5
		c-2.3-1.4-4.9-2.1-8-2.1c-4.9,0-9.1,1.5-12.6,4.6c-3.5,3.1-5.3,9-5.3,17.6v36.8H1506.8z"/>
	<path d="M1623.1,95.9l11.2,1.5c-1.2,7.7-4.4,13.8-9.4,18.2s-11.3,6.6-18.6,6.6c-9.2,0-16.6-3-22.2-9s-8.4-14.7-8.4-25.9
		c0-7.3,1.2-13.6,3.6-19.1s6.1-9.6,11-12.3s10.3-4.1,16.1-4.1c7.3,0,13.3,1.9,18,5.6c4.7,3.7,7.6,9,9,15.8l-11.1,1.7
		c-1.1-4.5-2.9-7.9-5.6-10.2s-5.9-3.4-9.7-3.4c-5.8,0-10.4,2.1-14,6.2c-3.6,4.1-5.4,10.7-5.4,19.6c0,9.1,1.7,15.6,5.2,19.7
		c3.5,4.1,8,6.2,13.6,6.2c4.5,0,8.2-1.4,11.2-4.1C1620.4,105.8,1622.3,101.6,1623.1,95.9z"/>
	<path d="M1690.2,98.9l11.8,1.5c-1.9,6.9-5.3,12.3-10.3,16.1c-5,3.8-11.5,5.7-19.3,5.7c-9.9,0-17.7-3-23.5-9.1
		c-5.8-6.1-8.7-14.6-8.7-25.5c0-11.3,2.9-20.1,8.8-26.4c5.8-6.3,13.4-9.4,22.7-9.4c9,0,16.4,3.1,22.1,9.2c5.7,6.1,8.6,14.8,8.6,25.9
		c0,0.7,0,1.7-0.1,3h-50.3c0.4,7.4,2.5,13.1,6.3,17c3.8,3.9,8.5,5.9,14.1,5.9c4.2,0,7.8-1.1,10.7-3.3
		C1686.1,107.2,1688.5,103.7,1690.2,98.9z M1652.7,80.4h37.6c-0.5-5.7-1.9-9.9-4.3-12.8c-3.6-4.4-8.4-6.6-14.2-6.6
		c-5.2,0-9.7,1.8-13.2,5.3C1655.1,69.8,1653.1,74.5,1652.7,80.4z"/>
	<path d="M1755.2,120.6V62.1h-10.1v-8.9h10.1V46c0-4.5,0.4-7.9,1.2-10.1c1.1-3,3-5.4,5.8-7.2s6.7-2.8,11.6-2.8
		c3.2,0,6.8,0.4,10.7,1.1l-1.7,10c-2.4-0.4-4.6-0.6-6.7-0.6c-3.5,0-5.9,0.7-7.4,2.2c-1.4,1.5-2.2,4.3-2.2,8.3v6.2h13.1v8.9h-13.1
		v58.5H1755.2z"/>
	<path d="M1784.4,86.9c0-12.5,3.5-21.7,10.4-27.7c5.8-5,12.9-7.5,21.2-7.5c9.3,0,16.8,3,22.7,9.1c5.9,6.1,8.8,14.5,8.8,25.2
		c0,8.7-1.3,15.5-3.9,20.5c-2.6,5-6.4,8.8-11.4,11.6s-10.4,4.1-16.3,4.1c-9.4,0-17.1-3-22.9-9.1C1787.3,107,1784.4,98.3,1784.4,86.9
		z M1796.1,86.9c0,8.6,1.9,15.1,5.6,19.4c3.8,4.3,8.5,6.4,14.2,6.4c5.7,0,10.4-2.2,14.2-6.5c3.8-4.3,5.6-10.9,5.6-19.7
		c0-8.3-1.9-14.7-5.7-18.9c-3.8-4.3-8.5-6.4-14.1-6.4c-5.7,0-10.5,2.1-14.2,6.4C1798,71.8,1796.1,78.3,1796.1,86.9z"/>
	<path d="M1860.8,120.6V53.2h10.3v10.2c2.6-4.8,5-7.9,7.3-9.5c2.2-1.5,4.7-2.3,7.3-2.3c3.9,0,7.8,1.2,11.7,3.7l-3.9,10.6
		c-2.8-1.7-5.6-2.5-8.4-2.5c-2.5,0-4.7,0.8-6.7,2.3c-2,1.5-3.4,3.6-4.3,6.3c-1.3,4.1-1.9,8.5-1.9,13.3v35.3H1860.8z"/>
	<path d="M1937.6,90.7l11.6-1c0.5,4.7,1.8,8.5,3.8,11.5c2,3,5.1,5.4,9.4,7.2c4.2,1.8,9,2.8,14.3,2.8c4.7,0,8.8-0.7,12.4-2.1
		c3.6-1.4,6.3-3.3,8-5.7c1.8-2.4,2.6-5.1,2.6-8c0-2.9-0.8-5.5-2.5-7.6c-1.7-2.2-4.5-4-8.4-5.5c-2.5-1-8-2.5-16.6-4.5
		c-8.5-2.1-14.5-4-18-5.8c-4.4-2.3-7.8-5.2-9.9-8.7c-2.2-3.4-3.3-7.3-3.3-11.6c0-4.7,1.3-9.1,4-13.2c2.7-4.1,6.6-7.2,11.7-9.3
		c5.1-2.1,10.8-3.2,17.1-3.2c6.9,0,13,1.1,18.3,3.3c5.3,2.2,9.3,5.5,12.2,9.8c2.8,4.3,4.4,9.2,4.6,14.7l-11.8,0.9
		c-0.6-5.9-2.8-10.3-6.4-13.3c-3.7-3-9.1-4.5-16.2-4.5c-7.4,0-12.9,1.4-16.3,4.1c-3.4,2.7-5.1,6-5.1,9.9c0,3.3,1.2,6.1,3.6,8.3
		c2.4,2.2,8.6,4.4,18.6,6.6c10,2.3,16.9,4.2,20.6,5.9c5.4,2.5,9.4,5.7,12,9.5c2.6,3.8,3.9,8.2,3.9,13.2c0,5-1.4,9.6-4.3,14
		c-2.8,4.4-6.9,7.8-12.2,10.2c-5.3,2.4-11.3,3.6-17.9,3.6c-8.4,0-15.5-1.2-21.2-3.7c-5.7-2.5-10.2-6.1-13.4-11.1
		C1939.5,102.5,1937.8,96.9,1937.6,90.7z"/>
	<path d="M2022.8,86.9c0-12.5,3.5-21.7,10.4-27.7c5.8-5,12.9-7.5,21.2-7.5c9.3,0,16.8,3,22.7,9.1c5.9,6.1,8.8,14.5,8.8,25.2
		c0,8.7-1.3,15.5-3.9,20.5c-2.6,5-6.4,8.8-11.4,11.6s-10.4,4.1-16.3,4.1c-9.4,0-17.1-3-22.9-9.1C2025.7,107,2022.8,98.3,2022.8,86.9
		z M2034.5,86.9c0,8.6,1.9,15.1,5.6,19.4c3.8,4.3,8.5,6.4,14.2,6.4c5.7,0,10.4-2.2,14.2-6.5c3.8-4.3,5.6-10.9,5.6-19.7
		c0-8.3-1.9-14.7-5.7-18.9c-3.8-4.3-8.5-6.4-14.1-6.4c-5.7,0-10.5,2.1-14.2,6.4C2036.4,71.8,2034.5,78.3,2034.5,86.9z"/>
	<path d="M2143.3,95.9l11.2,1.5c-1.2,7.7-4.4,13.8-9.4,18.2s-11.3,6.6-18.6,6.6c-9.2,0-16.6-3-22.2-9s-8.4-14.7-8.4-25.9
		c0-7.3,1.2-13.6,3.6-19.1s6.1-9.6,11-12.3s10.3-4.1,16.1-4.1c7.3,0,13.3,1.9,18,5.6c4.7,3.7,7.6,9,9,15.8l-11.1,1.7
		c-1.1-4.5-2.9-7.9-5.6-10.2s-5.9-3.4-9.7-3.4c-5.8,0-10.4,2.1-14,6.2c-3.6,4.1-5.4,10.7-5.4,19.6c0,9.1,1.7,15.6,5.2,19.7
		c3.5,4.1,8,6.2,13.6,6.2c4.5,0,8.2-1.4,11.2-4.1C2140.6,105.8,2142.5,101.6,2143.3,95.9z"/>
	<path d="M2164.4,40.7V27.5h11.4v13.1H2164.4z M2164.4,120.6V53.2h11.4v67.4H2164.4z"/>
	<path d="M2239.4,98.9l11.8,1.5c-1.9,6.9-5.3,12.3-10.3,16.1c-5,3.8-11.5,5.7-19.3,5.7c-9.9,0-17.7-3-23.5-9.1
		c-5.8-6.1-8.7-14.6-8.7-25.5c0-11.3,2.9-20.1,8.8-26.4c5.8-6.3,13.4-9.4,22.7-9.4c9,0,16.4,3.1,22.1,9.2c5.7,6.1,8.6,14.8,8.6,25.9
		c0,0.7,0,1.7-0.1,3h-50.3c0.4,7.4,2.5,13.1,6.3,17c3.8,3.9,8.5,5.9,14.1,5.9c4.2,0,7.8-1.1,10.7-3.3
		C2235.3,107.2,2237.6,103.7,2239.4,98.9z M2201.9,80.4h37.6c-0.5-5.7-1.9-9.9-4.3-12.8c-3.6-4.4-8.4-6.6-14.2-6.6
		c-5.2,0-9.7,1.8-13.2,5.3C2204.2,69.8,2202.2,74.5,2201.9,80.4z"/>
	<path d="M2290.5,110.4l1.7,10.1c-3.2,0.7-6.1,1-8.6,1c-4.1,0-7.4-0.7-9.6-2s-3.9-3-4.8-5.2c-0.9-2.1-1.4-6.6-1.4-13.5V62.1h-8.4
		v-8.9h8.4V36.5l11.4-6.9v23.5h11.5v8.9H2279v39.4c0,3.3,0.2,5.4,0.6,6.3c0.4,0.9,1.1,1.7,2,2.2c0.9,0.6,2.2,0.8,3.9,0.8
		C2286.7,110.8,2288.4,110.7,2290.5,110.4z"/>
	<path d="M2301.1,146.6l-1.3-10.7c2.5,0.7,4.7,1,6.5,1c2.5,0,4.6-0.4,6.1-1.3c1.5-0.8,2.8-2,3.7-3.6c0.7-1.1,1.9-4,3.5-8.5
		c0.2-0.6,0.5-1.6,1-2.8l-25.6-67.5h12.3l14,39c1.8,5,3.4,10.2,4.9,15.6c1.3-5.2,2.9-10.4,4.7-15.4l14.4-39.3h11.4l-25.6,68.6
		c-2.8,7.4-4.9,12.5-6.4,15.3c-2,3.8-4.4,6.5-7,8.3c-2.6,1.8-5.8,2.6-9.4,2.6C2306.3,148,2303.8,147.5,2301.1,146.6z"/>
	<path d="M2478.4,148V26h10v122H2478.4z"/>
	<path d="M2512.1,148V26h10v122H2512.1z"/>
	<path d="M2648.2,90.7l11.6-1c0.5,4.7,1.8,8.5,3.8,11.5c2,3,5.1,5.4,9.4,7.2c4.2,1.8,9,2.8,14.3,2.8c4.7,0,8.8-0.7,12.4-2.1
		c3.6-1.4,6.3-3.3,8-5.7c1.8-2.4,2.6-5.1,2.6-8c0-2.9-0.8-5.5-2.5-7.6c-1.7-2.2-4.5-4-8.4-5.5c-2.5-1-8-2.5-16.6-4.5
		c-8.5-2.1-14.5-4-18-5.8c-4.4-2.3-7.8-5.2-9.9-8.7c-2.2-3.4-3.3-7.3-3.3-11.6c0-4.7,1.3-9.1,4-13.2c2.7-4.1,6.6-7.2,11.7-9.3
		c5.1-2.1,10.8-3.2,17.1-3.2c6.9,0,13,1.1,18.3,3.3c5.3,2.2,9.3,5.5,12.2,9.8c2.8,4.3,4.4,9.2,4.6,14.7l-11.8,0.9
		c-0.6-5.9-2.8-10.3-6.4-13.3c-3.7-3-9.1-4.5-16.2-4.5c-7.4,0-12.9,1.4-16.3,4.1c-3.4,2.7-5.1,6-5.1,9.9c0,3.3,1.2,6.1,3.6,8.3
		c2.4,2.2,8.6,4.4,18.6,6.6c10,2.3,16.9,4.2,20.6,5.9c5.4,2.5,9.4,5.7,12,9.5c2.6,3.8,3.9,8.2,3.9,13.2c0,5-1.4,9.6-4.3,14
		c-2.8,4.4-6.9,7.8-12.2,10.2c-5.3,2.4-11.3,3.6-17.9,3.6c-8.4,0-15.5-1.2-21.2-3.7c-5.7-2.5-10.2-6.1-13.4-11.1
		C2650,102.5,2648.3,96.9,2648.2,90.7z"/>
	<path d="M2781.6,95.9l11.2,1.5c-1.2,7.7-4.4,13.8-9.4,18.2s-11.3,6.6-18.6,6.6c-9.2,0-16.6-3-22.2-9s-8.4-14.7-8.4-25.9
		c0-7.3,1.2-13.6,3.6-19.1s6.1-9.6,11-12.3s10.3-4.1,16.1-4.1c7.3,0,13.3,1.9,18,5.6c4.7,3.7,7.6,9,9,15.8l-11.1,1.7
		c-1.1-4.5-2.9-7.9-5.6-10.2s-5.9-3.4-9.7-3.4c-5.8,0-10.4,2.1-14,6.2c-3.6,4.1-5.4,10.7-5.4,19.6c0,9.1,1.7,15.6,5.2,19.7
		c3.5,4.1,8,6.2,13.6,6.2c4.5,0,8.2-1.4,11.2-4.1C2778.9,105.8,2780.8,101.6,2781.6,95.9z"/>
	<path d="M2802.7,40.7V27.5h11.4v13.1H2802.7z M2802.7,120.6V53.2h11.4v67.4H2802.7z"/>
	<path d="M2877.6,98.9l11.8,1.5c-1.9,6.9-5.3,12.3-10.3,16.1c-5,3.8-11.5,5.7-19.3,5.7c-9.9,0-17.7-3-23.5-9.1
		c-5.8-6.1-8.7-14.6-8.7-25.5c0-11.3,2.9-20.1,8.8-26.4c5.8-6.3,13.4-9.4,22.7-9.4c9,0,16.4,3.1,22.1,9.2c5.7,6.1,8.6,14.8,8.6,25.9
		c0,0.7,0,1.7-0.1,3h-50.3c0.4,7.4,2.5,13.1,6.3,17c3.8,3.9,8.5,5.9,14.1,5.9c4.2,0,7.8-1.1,10.7-3.3
		C2873.5,107.2,2875.9,103.7,2877.6,98.9z M2840.1,80.4h37.6c-0.5-5.7-1.9-9.9-4.3-12.8c-3.6-4.4-8.4-6.6-14.2-6.6
		c-5.2,0-9.7,1.8-13.2,5.3C2842.5,69.8,2840.5,74.5,2840.1,80.4z"/>
	<path d="M2903.8,120.6V53.2h10.3v9.6c5-7.4,12.1-11.1,21.5-11.1c4.1,0,7.8,0.7,11.2,2.2c3.4,1.5,6,3.4,7.6,5.7
		c1.7,2.4,2.9,5.2,3.6,8.4c0.4,2.1,0.6,5.8,0.6,11.1v41.5h-11.4v-41c0-4.7-0.4-8.1-1.3-10.4c-0.9-2.3-2.5-4.1-4.7-5.5
		c-2.3-1.4-4.9-2.1-8-2.1c-4.9,0-9.1,1.5-12.6,4.6c-3.5,3.1-5.3,9-5.3,17.6v36.8H2903.8z"/>
	<path d="M3020.1,95.9l11.2,1.5c-1.2,7.7-4.4,13.8-9.4,18.2s-11.3,6.6-18.6,6.6c-9.2,0-16.6-3-22.2-9s-8.4-14.7-8.4-25.9
		c0-7.3,1.2-13.6,3.6-19.1s6.1-9.6,11-12.3s10.3-4.1,16.1-4.1c7.3,0,13.3,1.9,18,5.6c4.7,3.7,7.6,9,9,15.8l-11.1,1.7
		c-1.1-4.5-2.9-7.9-5.6-10.2s-5.9-3.4-9.7-3.4c-5.8,0-10.4,2.1-14,6.2c-3.6,4.1-5.4,10.7-5.4,19.6c0,9.1,1.7,15.6,5.2,19.7
		c3.5,4.1,8,6.2,13.6,6.2c4.5,0,8.2-1.4,11.2-4.1C3017.4,105.8,3019.3,101.6,3020.1,95.9z"/>
	<path d="M3087.2,98.9l11.8,1.5c-1.9,6.9-5.3,12.3-10.3,16.1c-5,3.8-11.5,5.7-19.3,5.7c-9.9,0-17.7-3-23.5-9.1
		c-5.8-6.1-8.7-14.6-8.7-25.5c0-11.3,2.9-20.1,8.8-26.4c5.8-6.3,13.4-9.4,22.7-9.4c9,0,16.4,3.1,22.1,9.2c5.7,6.1,8.6,14.8,8.6,25.9
		c0,0.7,0,1.7-0.1,3h-50.3c0.4,7.4,2.5,13.1,6.3,17c3.8,3.9,8.5,5.9,14.1,5.9c4.2,0,7.8-1.1,10.7-3.3
		C3083.1,107.2,3085.5,103.7,3087.2,98.9z M3049.7,80.4h37.6c-0.5-5.7-1.9-9.9-4.3-12.8c-3.6-4.4-8.4-6.6-14.2-6.6
		c-5.2,0-9.7,1.8-13.2,5.3C3052.1,69.8,3050.1,74.5,3049.7,80.4z"/>
	<path d="M3149.6,40.7V27.5h11.4v13.1H3149.6z M3149.6,120.6V53.2h11.4v67.4H3149.6z"/>
	<path d="M3178.4,120.6V53.2h10.3v9.6c5-7.4,12.1-11.1,21.5-11.1c4.1,0,7.8,0.7,11.2,2.2c3.4,1.5,6,3.4,7.6,5.7
		c1.7,2.4,2.9,5.2,3.6,8.4c0.4,2.1,0.6,5.8,0.6,11.1v41.5h-11.4v-41c0-4.7-0.4-8.1-1.3-10.4c-0.9-2.3-2.5-4.1-4.7-5.5
		c-2.3-1.4-4.9-2.1-8-2.1c-4.9,0-9.1,1.5-12.6,4.6c-3.5,3.1-5.3,9-5.3,17.6v36.8H3178.4z"/>
	<path d="M3309.6,120.6V38.5h-30.7v-11h73.8v11h-30.8v82.1H3309.6z"/>
	<path d="M3363.9,120.6V27.5h11.4v33.4c5.3-6.2,12.1-9.3,20.2-9.3c5,0,9.3,1,13,3s6.3,4.7,7.9,8.2c1.6,3.5,2.4,8.5,2.4,15.1v42.7
		h-11.4V77.9c0-5.7-1.2-9.9-3.7-12.5c-2.5-2.6-6-3.9-10.5-3.9c-3.4,0-6.6,0.9-9.6,2.6c-3,1.8-5.1,4.1-6.4,7.1
		c-1.3,3-1.9,7.2-1.9,12.4v36.9H3363.9z"/>
	<path d="M3436.2,40.7V27.5h11.4v13.1H3436.2z M3436.2,120.6V53.2h11.4v67.4H3436.2z"/>
	<path d="M3465,120.6V53.2h10.3v9.6c5-7.4,12.1-11.1,21.5-11.1c4.1,0,7.8,0.7,11.2,2.2c3.4,1.5,6,3.4,7.6,5.7
		c1.7,2.4,2.9,5.2,3.6,8.4c0.4,2.1,0.6,5.8,0.6,11.1v41.5h-11.4v-41c0-4.7-0.4-8.1-1.3-10.4c-0.9-2.3-2.5-4.1-4.7-5.5
		c-2.3-1.4-4.9-2.1-8-2.1c-4.9,0-9.1,1.5-12.6,4.6c-3.5,3.1-5.3,9-5.3,17.6v36.8H3465z"/>
	<path d="M3537.4,120.6V27.5h11.4v53.1l27-27.4h14.8l-25.8,25l28.4,42.4h-14.1l-22.3-34.5l-8.1,7.7v26.7H3537.4z"/>
	<path d="M3602.4,40.7V27.5h11.4v13.1H3602.4z M3602.4,120.6V53.2h11.4v67.4H3602.4z"/>
	<path d="M3631.2,120.6V53.2h10.3v9.6c5-7.4,12.1-11.1,21.5-11.1c4.1,0,7.8,0.7,11.2,2.2c3.4,1.5,6,3.4,7.6,5.7
		c1.7,2.4,2.9,5.2,3.6,8.4c0.4,2.1,0.6,5.8,0.6,11.1v41.5h-11.4v-41c0-4.7-0.4-8.1-1.3-10.4c-0.9-2.3-2.5-4.1-4.7-5.5
		c-2.3-1.4-4.9-2.1-8-2.1c-4.9,0-9.1,1.5-12.6,4.6c-3.5,3.1-5.3,9-5.3,17.6v36.8H3631.2z"/>
	<path d="M3701.4,126.2l11.1,1.7c0.5,3.4,1.8,5.9,3.9,7.5c2.8,2.1,6.7,3.2,11.6,3.2c5.3,0,9.4-1.1,12.3-3.2c2.9-2.1,4.8-5.1,5.8-8.9
		c0.6-2.3,0.9-7.2,0.8-14.7c-5,5.9-11.2,8.8-18.7,8.8c-9.3,0-16.4-3.3-21.5-10c-5.1-6.7-7.6-14.7-7.6-24.1c0-6.4,1.2-12.4,3.5-17.8
		c2.3-5.4,5.7-9.6,10.1-12.6c4.4-3,9.6-4.4,15.6-4.4c8,0,14.5,3.2,19.7,9.6v-8.1h10.5v58.3c0,10.5-1.1,17.9-3.2,22.3
		c-2.1,4.4-5.5,7.8-10.2,10.4c-4.6,2.5-10.3,3.8-17.1,3.8c-8,0-14.5-1.8-19.5-5.4S3701.3,133.5,3701.4,126.2z M3710.9,85.7
		c0,8.8,1.8,15.3,5.3,19.4c3.5,4.1,7.9,6.1,13.2,6.1c5.2,0,9.6-2,13.2-6.1c3.6-4,5.3-10.4,5.3-19c0-8.3-1.8-14.5-5.5-18.7
		c-3.7-4.2-8.1-6.3-13.2-6.3c-5.1,0-9.4,2.1-12.9,6.2S3710.9,77.6,3710.9,85.7z"/>
</g>
<g>
</g>
<g>
</g>
<g>
</g>
<g>
</g>
<g>
</g>
</svg>
