<svg xmlns="http://www.w3.org/2000/svg" viewBox="0 0 706 706"><defs><style>.cls-1{fill:#fff;}.cls-2{fill:#0073d1;}.cls-3{fill:#7f00ff;}.cls-4{fill:#3f00ff;}.cls-5{fill:blue;}.cls-6{fill:lime;}.cls-7{fill:#ffbc00;}.cls-8{fill:#ff7f00;}.cls-9{fill:red;}.cls-10{fill:#7c00ff;}.cls-11{fill:#5700ff;}.cls-12{fill:#3700ff;}.cls-13{fill:#0062ff;}.cls-14{fill:aqua;}.cls-15{fill:#83ff00;}.cls-16{fill:#ff0;}.cls-17{fill:#ff3c00;}</style></defs><title>Asset 10</title><g id="Layer_2" data-name="Layer 2"><g id="_1" data-name="1"><circle class="cls-1" cx="353" cy="353" r="353"/></g><g id="Layer_11" data-name="Layer 11"><g id="LOS-holder"><polygon id="L" class="cls-2" points="290.13 547.96 290.13 526.23 276.55 526.23 276.55 547.96 276.55 561.54 290.13 561.54 431.95 561.54 431.95 547.96 290.13 547.96"/><path id="O" class="cls-2" d="M418.37,569.68H276.55V605H432V569.68Zm0,21.72H290.13v-8.14H418.37Z"/><polygon id="S" class="cls-2" points="431.95 630.78 431.95 613.12 418.37 613.12 418.37 613.13 290.13 613.13 290.13 613.12 276.55 613.12 276.55 634.85 276.55 648.43 290.13 648.43 418.37 648.43 418.37 656.57 290.13 656.57 290.13 652.5 276.55 652.5 276.55 670.15 290.13 670.15 290.13 670.15 418.37 670.15 418.37 670.15 431.95 670.15 431.95 648.43 431.95 634.85 418.37 634.85 290.13 634.85 290.13 626.71 418.37 626.71 418.37 630.78 431.95 630.78"/></g><path class="cls-3" d="M239.48,305.18l-.6-1.2q7-20.61,9.44-28.69-1.92-6.77,2.58-9a6.42,6.42,0,0,1,2.72-.61l.8.79a6.23,6.23,0,0,0,.64,1.82,17.39,17.39,0,0,0,2.56,3.14c1.38,1.47,2.51,2.71,3.39,3.74a19.11,19.11,0,0,1,2.42,3.75,15,15,0,0,1,1.58,7.16,24.32,24.32,0,0,1-1.75,8.16,56.39,56.39,0,0,1-5,9.66,25.08,25.08,0,0,0,3.21-1.23,14.48,14.48,0,0,0,4.23-3.42,34.49,34.49,0,0,0,3.82-5.37c1.19-2.05,2.5-4.58,3.94-7.61l1.69,3.37a89.3,89.3,0,0,1-7.51,15.68q-3.8,6-7.71,7.92a15,15,0,0,1-11.36.68,12,12,0,0,1-5.45-3A26,26,0,0,1,239.48,305.18Zm16.16-17.73L251,280.61q-1.56,5.19-7.44,20.64,3.55-1,5.28-.45a30.88,30.88,0,0,1,5.47,2.59,14.48,14.48,0,0,0,3.68-6.65,11.55,11.55,0,0,0-1.38-7.63c-.17-.34-.33-.63-.48-.89S255.81,287.7,255.64,287.45Z"/><path class="cls-4" d="M307.78,276l1.13,3.59q-4.35,7.56-7.25,11.88a44.82,44.82,0,0,1-5.7,7.09,15,15,0,0,1-6,3.77,9,9,0,0,1-6.51-.51,16.35,16.35,0,0,1-6.05-4.81,22.67,22.67,0,0,1-4-7.54,12.74,12.74,0,0,1-.32-7,39.56,39.56,0,0,1,4.33-9.42,67.27,67.27,0,0,1,8.25-11.69q4.1-4.5,7-5.4a5.2,5.2,0,0,1,3.92.24,4.68,4.68,0,0,1,2.49,2.93q.54,1.71-.36,5.47a29,29,0,0,1-2.51,6.82c-1.08,2.05-2.07,3.21-3,3.5a1.38,1.38,0,0,1-2-1c-.05-.3-.11-.57-.17-.83s-.13-.51-.21-.76c-.13-.43-.37-.62-.71-.57a1.8,1.8,0,0,0-1.05.77q-4.55,5.55-6.19,7.75a17.76,17.76,0,0,0-2.38,4.13,5.45,5.45,0,0,0-.2,3.65,6.94,6.94,0,0,0,3.79,4.46,8.44,8.44,0,0,0,6.3.2q3.6-1.12,7.86-5.32A99.92,99.92,0,0,0,307.78,276Z"/><path class="cls-5" d="M335.84,271.74l.66,4a58.78,58.78,0,0,1-9,12.2q-4.39,4.33-7.9,4.9-4.86.8-8-3.59a23.28,23.28,0,0,1-4.07-10,17.67,17.67,0,0,1-.2-4.21,15.26,15.26,0,0,1,.59-3.42c.3-.92.89-2.39,1.78-4.39q6.42-13.62,13.41-14.76,3.62-.6,4,2,.28,1.77-1.44,5.93a24.87,24.87,0,0,1-3.3,6.05,90,90,0,0,0-5.66,7.59,6.29,6.29,0,0,0-.9,4.41,4.25,4.25,0,0,0,2.15,3.07,6.34,6.34,0,0,0,4.36.65,12.65,12.65,0,0,0,5.82-2.91A76,76,0,0,0,335.84,271.74Zm-8.07-24.13a4.45,4.45,0,0,1-3-.59,3.3,3.3,0,0,1-1.77-2.44c-.26-1.63.27-3.57,1.6-5.84s2.89-3.55,4.67-3.84a4.42,4.42,0,0,1,3.13.55,3.75,3.75,0,0,1,1.67,2.77c.26,1.59-.27,3.48-1.57,5.66S329.63,247.31,327.77,247.61Z"/><path class="cls-6" d="M344.83,273.55l0,1.4a7.28,7.28,0,0,0,1.83,5.14,6,6,0,0,0,4.6,1.77,16.12,16.12,0,0,0,6.07-1.4,34.38,34.38,0,0,0,6.21-3.54q3.09-2.18,7.52-5.86l.06,3.43a72,72,0,0,1-12.52,11.93,21.15,21.15,0,0,1-12,4.28A10.28,10.28,0,0,1,338.1,287q-3.19-3.83-3.31-10.56a20.1,20.1,0,0,1,2.75-10.75q2.86-4.86,9.43-10.31a37.77,37.77,0,0,1,9-5.66,21.41,21.41,0,0,1,8-2,7.4,7.4,0,0,1,4.49,1.13,4.18,4.18,0,0,1,1.72,3.59,11.27,11.27,0,0,1-2.7,7.1,32.06,32.06,0,0,1-8.49,7.11A92,92,0,0,1,344.83,273.55Zm.53-3.66a35.15,35.15,0,0,0,9.16-5.05,25.6,25.6,0,0,0,5.58-5.69c1.19-1.8,1.77-3.11,1.76-3.93s-.44-1.29-1.28-1.27a8.9,8.9,0,0,0-3.49,1.35,28.72,28.72,0,0,0-4.87,3.46,25.3,25.3,0,0,0-4.38,5A15.13,15.13,0,0,0,345.36,269.89Z"/><path class="cls-7" d="M412.62,267.37q-12.22,9.15-12.92,13.41-.4,2.39,1.68,2.73a9.5,9.5,0,0,0,4.75-1q3-1.23,9.61-4.59l-.63,3.82q-9.69,6.38-14.76,9.07t-7.91,2.23q-4.86-.81-3.87-6.79a10.74,10.74,0,0,1,1.16-3.39,23.93,23.93,0,0,1,2.22-3.31q1.35-1.68,4.05-4.8t6.21-7a37.2,37.2,0,0,0-9.52,5,63.71,63.71,0,0,0-6.57,4.75q-2.75,2.31-5.93,5.17a48.29,48.29,0,0,1-4.58,3.8,3.69,3.69,0,0,1-2.65.73q-1.89-.31-2.88-4.29a22,22,0,0,1-.18-8.91,12.62,12.62,0,0,1,1.53-4.64,31.56,31.56,0,0,1,3.74-4.39,55.55,55.55,0,0,1,8.46-7.46q3.42-2.25,6.14-1.81a6.65,6.65,0,0,1,3,1.12,2,2,0,0,1,.85,2.07A2.32,2.32,0,0,1,393,260a6.41,6.41,0,0,1-1,1c-.35.29-1.08.83-2.19,1.64q-11,8.14-11.43,11c-.18,1.08.11,1.67.86,1.8.48.07,1.51-.49,3.11-1.68s3.66-2.78,6.19-4.73a94.41,94.41,0,0,1,8.84-6,83.94,83.94,0,0,1,11.23-5.6q3.48-1.53,5.55-1.19c.64.1,1.12,1,1.47,2.74a14.08,14.08,0,0,1,.1,5.09Q415.58,265.29,412.62,267.37Z"/><path class="cls-8" d="M449.08,291l-1.28,3.54q-8,3.38-12.95,5.08a45.55,45.55,0,0,1-8.83,2.2,15.09,15.09,0,0,1-7.08-.64,8.92,8.92,0,0,1-4.88-4.35,16.43,16.43,0,0,1-1.9-7.48,22.6,22.6,0,0,1,1.37-8.43,12.84,12.84,0,0,1,4-5.79,39.72,39.72,0,0,1,9.16-4.89,68,68,0,0,1,13.64-4.32c4-.73,6.92-.76,8.8-.09a5.14,5.14,0,0,1,3,2.56,4.63,4.63,0,0,1,.22,3.84c-.41,1.13-1.6,2.51-3.59,4.14a29.43,29.43,0,0,1-6.13,3.92c-2.1,1-3.59,1.3-4.5,1a1.39,1.39,0,0,1-.94-2c.14-.27.27-.52.37-.76s.21-.49.3-.73c.15-.43.07-.72-.23-.89a1.76,1.76,0,0,0-1.3,0q-7,1.66-9.61,2.43a17.54,17.54,0,0,0-4.4,1.85,5.48,5.48,0,0,0-2.37,2.79,6.91,6.91,0,0,0,.33,5.84,8.48,8.48,0,0,0,4.89,4q3.56,1.27,9.48.51A99.75,99.75,0,0,0,449.08,291Z"/><path class="cls-9" d="M456.18,297.32l-.68,1.23a7.26,7.26,0,0,0-1,5.36,6,6,0,0,0,3.1,3.83,16,16,0,0,0,6,1.8,34,34,0,0,0,7.14,0q3.76-.37,9.45-1.35l-1.66,3a72.54,72.54,0,0,1-16.79,4.13,21.15,21.15,0,0,1-12.54-2.25,10.31,10.31,0,0,1-5.55-7.48q-.87-4.89,2.38-10.8a20,20,0,0,1,7.74-8,41.41,41.41,0,0,1,13.3-4.25,37.14,37.14,0,0,1,10.6-.45,21.4,21.4,0,0,1,7.94,2.25,7.48,7.48,0,0,1,3.34,3.21,4.23,4.23,0,0,1-.3,4,11.25,11.25,0,0,1-5.87,4.82,32.21,32.21,0,0,1-10.91,1.95A91.37,91.37,0,0,1,456.18,297.32Zm2.28-2.91a34.55,34.55,0,0,0,10.46.17,25.7,25.7,0,0,0,7.67-2.16c1.92-1,3.08-1.81,3.48-2.54a1.13,1.13,0,0,0-.48-1.74,9.2,9.2,0,0,0-3.7-.56,29.65,29.65,0,0,0-5.94.58,25.81,25.81,0,0,0-6.27,2.13A15.26,15.26,0,0,0,458.46,294.41Z"/><path class="cls-10" d="M250.67,452.12l-21,36.31A243.15,243.15,0,0,1,189,458.35L229.9,413C237.36,425.14,244.48,437.14,250.67,452.12Z"/><path class="cls-11" d="M210.85,380.38,155.49,420.6a242.46,242.46,0,0,1-25-43.8L195,348.07C200.17,360.12,205.84,370.94,210.85,380.38Z"/><path class="cls-12" d="M183.4,314.28,115.06,328.8a244,244,0,0,1-5.13-49.89v-.22h68.49A165.94,165.94,0,0,0,183.4,314.28Z"/><path class="cls-13" d="M192.76,208.33a170.9,170.9,0,0,0-11.12,34.41L115.15,228.6a240.15,240.15,0,0,1,15.47-47.94Z"/><path class="cls-5" d="M233.62,148.54a200.79,200.79,0,0,0-23.18,28.17l-54.75-39.77a243.32,243.32,0,0,1,33.57-37.66Z"/><path class="cls-14" d="M296.11,110.35a179.73,179.73,0,0,0-33.38,15.8L229.9,69.28a241.81,241.81,0,0,1,46-21Z"/><path class="cls-6" d="M376.21,36.94l-6.65,63.35c-5.92-.58-10.7-.77-14-.84a188.43,188.43,0,0,0-23.39,2l-6.74-64A245.93,245.93,0,0,1,353,35.85Q364.75,35.85,376.21,36.94Z"/><path class="cls-15" d="M472.81,67.38,441.25,122a181.74,181.74,0,0,0-34.84-14.5L426.07,47A241.07,241.07,0,0,1,472.81,67.38Z"/><path class="cls-16" d="M548.79,134.85l-51.32,37.28c-11.81-16.31-22.42-26-24.06-27.5l-1.05-.93,42-46.61A244.56,244.56,0,0,1,548.79,134.85Z"/><path class="cls-7" d="M590.66,227.71,529.08,240.8a173,173,0,0,0-12.31-36L574.66,179A240.92,240.92,0,0,1,590.66,227.71Z"/><path class="cls-8" d="M596.07,278.69v.22a243.52,243.52,0,0,1-5.32,50.79l-63.5-13.5a166.87,166.87,0,0,0,5.47-37.51Z"/><path class="cls-17" d="M574.82,378.44A242.7,242.7,0,0,1,549,422.69l-51.38-37.33c.55-1,1.11-2.05,1.66-3.09,4.77-9,10.21-19.23,15.31-30.65Z"/><path class="cls-9" d="M514.54,460.54A243.59,243.59,0,0,1,473,490.34l-16.33-28.29c6-17,13.12-30.07,20.74-42.75Z"/></g></g></svg>