<svg xmlns="http://www.w3.org/2000/svg" viewBox="0 0 1045.01 909.59"><defs><style>.cls-1{fill:#ed1c24;}.cls-2{fill:#00aeef;}.cls-3{fill:#262262;}</style></defs><title>Asset 3</title><g id="Layer_2" data-name="Layer 2"><g id="World_Environment_Day_Logo" data-name="World Environment Day Logo"><path class="cls-1" d="M324.32,613.22q7.8,11.55,15.89,23.47c2.11,2.32,15.61,16.58,37.62,16.56s35.4-14.24,37.52-16.56l-12.17-18-30.47-45.15L211.6,334.79h0A177.66,177.66,0,0,1,188,279a31.17,31.17,0,0,0-37.38-11.77C136.39,273,128.47,289,132.65,304.34a260.75,260.75,0,0,0,9.4,26.82C151,352.34,218.68,457,324.32,613.22Z"/><path class="cls-1" d="M715.61,636.69q7.21-10.76,14.23-21.27C832.17,462.11,900.46,351,920.15,307.32a34.4,34.4,0,0,0-20-31c-16.77-7.55-32.16,2.39-33.08,3a177.7,177.7,0,0,1-25.5,58.36h0c-52.15,79.16-85,128.18-105.84,158.94-7.14,10.55-36.5,53.87-55.89,82.41l-30.28,44.52-8.9,13.08c1.33,3.68,7,18,21,23.65C679,667.36,702.61,658.45,715.61,636.69Z"/><path class="cls-1" d="M527.42,802.74,449.35,687.06c-11.76-16.19-30.91-24-48.27-19.81-16,3.86-24.51,16.45-26.63,19.81q36.36,53.33,72.93,106.53,38.33,55.74,80.09,116c56.13-79.52,107.85-154.28,154.15-222.53-3.31-3.66-13.13-13.53-29-16.22-25.9-4.4-44.58,14.41-46.32,16.22Z"/><path class="cls-2" d="M236.41,636.59v.08l-1.51,0A181.91,181.91,0,0,1,132.65,304.34c12-4.35,20.23-15,20.54-26.48.4-14.72-12.32-28.78-29.68-29.92A234.92,234.92,0,0,0,199.4,687c23.6,0,47.2,0,70.8-.44H374.45c-11.78-16.81-23.2-33.6-34.24-50Z"/><path class="cls-2" d="M1026.53,360.72a235.9,235.9,0,0,0-95.2-109.81c-2.14,1.41-14.81,10-17.68,27a41.13,41.13,0,0,0,6.5,29.46,182.19,182.19,0,0,1,63.76,91,179.28,179.28,0,0,1,8.1,53.84c0,12.71-1.68,68.7-43,117.4-40.42,47.68-94.51,59.68-119.56,65.24-3.88.86-7.13,1.48-9.41,1.78H715.61c-11,16.46-22.31,33.25-34,50h128.5a224.89,224.89,0,0,0,91.45-18,235.1,235.1,0,0,0,125-307.86Z"/><path class="cls-2" d="M605.77,686.59l34.06-50H416.19q16.21,24,33.74,50Z"/><path class="cls-3" d="M913.06,145.56A238.44,238.44,0,0,0,557.9,42.28a240.06,240.06,0,0,0-30.34,24.89,240.86,240.86,0,0,0-30.35-24.89A238.29,238.29,0,0,0,123.3,238.36c0,3.2.08,6.4.21,9.58a236.87,236.87,0,0,0,6,44.77s1.09,4.66,3.13,11.63A181,181,0,0,1,188,279a178.6,178.6,0,0,1-4.66-40.66q0-6.5.46-12.87C190.36,133,267.48,60,361.65,60A178.43,178.43,0,0,1,527.56,172.75a178.39,178.39,0,0,1,343.78,52.6c.31,4.29.48,8.63.48,13a178.83,178.83,0,0,1-4.75,41,181.33,181.33,0,0,1,53.08,27.94,84.54,84.54,0,0,0,5.45-14.63,273.67,273.67,0,0,0,5.73-41.78c.48-7.69.49-12.55.49-12.55A236.84,236.84,0,0,0,913.06,145.56Z"/><path class="cls-3" d="M415.2,636.59H340.61q16.45,24.25,34,50H449Z"/><path class="cls-3" d="M715.2,636.59H640.81l-34.06,50h74.72Q698.87,661,715.2,636.59Z"/></g></g></svg>