<svg xmlns="http://www.w3.org/2000/svg" xmlns:xlink="http://www.w3.org/1999/xlink" id="BSS_LOGO" x="0" y="0" version="1.1" viewBox="0 0 2000 2000" xml:space="preserve" style="enable-background:new 0 0 2000 2000"><style type="text/css">.st0{fill:#fff}</style><g id="_x31_st_ring_group"><path id="_x31_" d="M699.6,1030.2c3.3-9.7,7.2-20,11.8-30.7c4.9-11.6,10.1-22.3,15.2-32c19.2,11.3,38.5,22.6,57.7,33.9 c-4.1,7.1-8.3,15-12.4,23.6c-4.6,9.8-8.5,19.2-11.6,27.9C740,1045.3,719.8,1037.8,699.6,1030.2z" class="st0"/><path id="_x32_" d="M857.1,914.6c-6.7,5.6-13.8,12-21,19.2s-13.6,14.3-19.3,21c-18-15.3-36-30.7-53.9-46 c6.3-8.7,13.3-17.7,21-26.9c8.2-9.8,16.3-18.6,24.1-26.7C824.4,875.1,840.8,894.9,857.1,914.6z" class="st0"/><path id="_x33_" d="M903.8,882c-14.1-24.8-28.1-49.6-42.2-74.5c9.5-7.3,19.9-14.8,31.4-22.3 c10.5-6.8,20.6-12.9,30.3-18.3c10.8,30.3,21.5,60.6,32.3,91c-8.6,3.1-17.9,6.9-27.6,11.5C919.1,873.5,911.1,877.8,903.8,882z" class="st0"/><path id="_x34_" d="M992.8,736c13.5-4.6,28.7-9,45.5-12.5c10.7-2.3,20.9-3.9,30.4-5.2c-0.8,40.1-1.7,80.2-2.5,120.3 c-8.8,0-18.3,0.3-28.4,1.2c-9.7,0.8-18.7,2.1-27,3.5C1004.8,807.5,998.8,771.8,992.8,736z" class="st0"/><path id="_x35_" d="M1148.4,715.5c11.6,0.5,24.1,1.5,37.3,3.2c15.8,2,30.4,4.7,43.6,7.7c-16.5,44.2-33,88.4-49.5,132.6 c-8.9-3.3-18.7-6.5-29.5-9.4c-9-2.4-17.7-4.3-25.7-5.8C1132.6,801.1,1140.5,758.3,1148.4,715.5z" class="st0"/><path id="_x36_" d="M1308.7,752.5c10.5,4.6,21.6,9.9,33.1,16.1c15.4,8.3,29.2,16.9,41.4,25.2 c-35,41.1-70.1,82.1-105.1,123.2c-7-6-14.8-12.2-23.5-18.4c-8-5.7-15.7-10.6-23-14.9C1257.3,839.9,1283,796.2,1308.7,752.5z" class="st0"/><path id="_x37_" d="M1449.6,849.2c11.3,11.4,23.1,24.6,34.9,39.7c7.6,9.7,14.4,19.3,20.5,28.4 c-51.4,29.2-102.9,58.4-154.3,87.6c-4.6-7.8-9.7-16-15.6-24.4c-5.7-8.3-11.5-15.9-17.1-22.7 C1361.9,921.6,1405.8,885.4,1449.6,849.2z" class="st0"/><path id="_x38_" d="M1373.7,1057.1c57.6-20.4,115.2-40.9,172.8-61.3c4.8,11.8,9.6,24.8,13.9,39 c5.1,16.7,8.8,32.4,11.5,46.7c-61.4,10.3-122.9,20.6-184.3,31c-1.2-7.7-2.8-15.8-4.9-24.4C1380.1,1076.8,1377,1066.4,1373.7,1057.1 z" class="st0"/><path id="_x39_" d="M1391.7,1169.3c62.8,0.5,125.5,1,188.3,1.5c-0.1,13.1-0.8,27.4-2.4,42.6c-1.7,17-4.3,32.5-7.3,46.5 c-61.5-11.4-123-22.7-184.4-34.1c1.6-8.4,3.1-17.6,4.1-27.5C1391.1,1187.9,1391.6,1178.2,1391.7,1169.3z" class="st0"/><path id="_x31_0" d="M1370.3,1280.5c57.6,21.5,115.1,43,172.7,64.4c-5.2,11.7-11.2,24-18,36.7 c-8,15-16.2,28.7-24.3,41.2c-51.8-30.4-103.5-60.9-155.3-91.3c4.6-7.7,9.4-16.3,14-25.8C1363.7,1296.9,1367.3,1288.4,1370.3,1280.5 z" class="st0"/><path id="_x31_1" d="M1271.6,1416.7c6.5-5.3,13.3-11.3,20.3-17.9c7.6-7.3,14.4-14.6,20.3-21.4 c45.1,38.5,90.2,77,135.3,115.4c-9.3,10-19.3,20.3-30,30.7c-11.2,10.8-22.2,20.9-32.9,30.2 C1346.9,1508,1309.2,1462.4,1271.6,1416.7z" class="st0"/><path id="_x31_2" d="M1173.3,1471.6c9-3.1,18.7-7,28.8-11.6c8.2-3.8,15.8-7.7,22.7-11.5c29.4,52,58.9,103.9,88.3,155.9 c-11.7,7.1-24.6,14.2-38.6,21.2s-27.4,13-40.1,18.2C1214.1,1586.4,1193.7,1529,1173.3,1471.6z" class="st0"/><path id="_x31_3" d="M1062.5,1489.6c9.4,0.1,19.6-0.2,30.5-1.1c9.2-0.7,17.7-1.8,25.7-3.1 c10.4,61.8,20.8,123.6,31.1,185.4c-15.4,3.6-32.1,6.9-50.1,9.5c-13.6,1.9-26.5,3.3-38.8,4.2 C1061.5,1619.6,1062,1554.6,1062.5,1489.6z" class="st0"/><path id="_x31_4" d="M952.2,1469.1c9.3,3.5,19.6,6.8,30.8,9.8c8.2,2.2,16,3.9,23.4,5.3c-12.3,66.7-24.6,133.3-36.9,200 c-14.8-1.2-30.7-3.1-47.6-5.9c-15.9-2.7-30.7-5.8-44.3-9.2C902.5,1602.4,927.4,1535.8,952.2,1469.1z" class="st0"/><path id="_x31_5" d="M855.6,1412.3c6.9,5.9,14.7,12,23.4,18.1c7.8,5.5,15.4,10.3,22.5,14.5 c-37.9,64.5-75.9,129-113.8,193.5c-15.5-6.8-32-14.8-49.2-24.3c-13.1-7.3-25.1-14.6-36.2-21.9 C753.3,1532.2,804.4,1472.3,855.6,1412.3z" class="st0"/><path id="_x31_6" d="M556.3,1454.9c75.8-43,151.6-85.9,227.4-128.9c4.5,7.8,9.7,16.1,15.7,24.6 c5.6,7.9,11.1,15.1,16.5,21.6c-64,52.8-127.9,105.6-191.9,158.4c-11-10.3-22.4-21.8-34.1-34.7 C577.3,1481.8,566.1,1468,556.3,1454.9z" class="st0"/><path id="_x31_7" d="M463.8,1267.7c93.9-15.8,187.8-31.6,281.8-47.3c1.5,8.5,3.4,17.8,6,27.5c2.6,9.8,5.5,18.8,8.5,27 c-86,30.5-172.1,61.1-258.1,91.6c-6.8-13.6-13.5-28.6-19.9-44.9C474.4,1302.5,468.5,1284.4,463.8,1267.7z" class="st0"/><path id="_x31_8" d="M445.1,1052.1c-2,19.8-3.2,41.7-2.9,65.4c0.2,15.6,1,30.3,2.2,44.1c98.8,0.8,197.6,1.7,296.3,2.5 c0-9.3,0.4-19.3,1.4-30.1c0.9-9.4,2.1-18.3,3.5-26.4C645.4,1089.1,545.3,1070.6,445.1,1052.1z" class="st0"/></g><g id="_x32_nd_ring_group"><path id="_x31_9" d="M511.3,840.9c9.1-16.1,19.5-33.3,31.6-51c10.5-15.3,21-29.4,31.2-42.1 c63,53.7,125.9,107.4,188.9,161.1c-6.2,8.5-12.5,17.8-18.8,27.9c-6.7,10.7-12.5,21-17.6,30.8C654.8,925.3,583,883.1,511.3,840.9z" class="st0"/><path id="_x32_0" d="M651.6,665.7c14.2-12.8,30.2-26,47.9-39.3c14.7-11,29-20.8,42.7-29.5 c39.6,70.3,79.3,140.7,118.9,211c-8.4,6.5-17,13.6-25.9,21.4c-10,8.8-19,17.5-27.2,26C755.9,792.1,703.8,728.9,651.6,665.7z" class="st0"/><path id="_x32_1" d="M844,543.5c15.9-6.7,33.2-13.3,52-19.5c20.6-6.8,40.2-12.1,58.4-16.3c12.6,76,25.3,152,37.9,227.9 c-12.1,4.4-25,9.6-38.4,15.8c-11,5.1-21.2,10.3-30.6,15.4C896.9,692.5,870.4,618,844,543.5z" class="st0"/><path id="_x32_2" d="M1070.6,491.1c20.3-1.2,42.3-1.5,66-0.6c18.7,0.7,36.3,2.1,52.7,4 c-13.6,73.7-27.2,147.4-40.8,221.1c-13.7-0.7-28.6-0.9-44.7-0.2c-12.4,0.6-24.1,1.6-35,2.9C1069.3,642.5,1070,566.8,1070.6,491.1z" class="st0"/><path id="_x32_3" d="M1306.9,518.6c17.1,5.1,35.4,11.3,54.6,18.9c21.4,8.4,40.8,17.3,58.3,26.2 c-37,63-74.1,125.9-111.1,188.9c-12.2-5.3-25.8-10.6-40.8-15.5c-13.6-4.4-26.5-7.9-38.5-10.6 C1255.2,657.1,1281.1,587.8,1306.9,518.6z" class="st0"/><path id="_x32_4" d="M1524,628.7c14.8,11.2,30.4,23.9,46.3,38.4c17.1,15.4,32.2,30.6,45.4,45.1 c-55.6,45.5-111.3,90.9-166.9,136.4c-9.5-9.6-20.3-19.6-32.6-29.8c-11.5-9.5-22.6-17.8-33.1-24.9 C1430.1,738.7,1477,683.7,1524,628.7z" class="st0"/><path id="_x32_5" d="M1505,917.4c62.2-35.3,124.5-70.5,186.7-105.8c12.9,20.6,26,43.8,38.4,69.9 c7,14.7,13.1,28.9,18.6,42.6c-67.4,23.9-134.8,47.8-202.2,71.7c-4.9-12.1-10.9-25-18-38.6C1520.8,942.4,1512.8,929.1,1505,917.4z" class="st0"/><path id="_x32_6" d="M1572,1081.5c70.7-11.9,141.5-23.8,212.2-35.7c3.5,17.8,6.6,37.3,8.8,58.3 c2.6,24.7,3.6,47.6,3.6,68.5c-72.1-0.6-144.2-1.2-216.3-1.8c0-13.1-0.5-27.3-1.9-42.4C1576.9,1111.3,1574.6,1095.7,1572,1081.5z" class="st0"/><path id="_x32_7" d="M1570.3,1259.9c71.7,13.2,143.4,26.5,215.1,39.7c-3.3,18.3-7.7,38-13.4,58.8 c-6.4,23.5-13.7,44.9-21.1,64.1c-69.2-25.8-138.5-51.7-207.7-77.5c5.3-12.3,10.5-26,15.3-41 C1563.7,1288.3,1567.5,1273.5,1570.3,1259.9z" class="st0"/><path id="_x32_8" d="M1500.7,1422.9c64.5,38,129.1,75.9,193.6,113.9c-9.9,15.9-21.2,32.8-34.2,50.2 c-14.3,19.1-28.6,36.2-42.3,51.2c-56.8-48.4-113.6-96.9-170.4-145.3c8.8-10,18-20.9,27.1-32.9 C1484.4,1447.1,1493.1,1434.7,1500.7,1422.9z" class="st0"/><path id="_x32_9" d="M1313.1,1604.4c11.8-7.1,24.2-15.1,37.1-24.3c12.5-8.9,24-17.8,34.4-26.4 c46.6,56.4,93.1,112.8,139.7,169.2c-14.7,11.5-30.7,23.2-48,34.9c-19.5,13.2-38.3,24.8-56.3,35.1 C1384.4,1730.1,1348.8,1667.2,1313.1,1604.4z" class="st0"/><path id="_x33_0" d="M1149.8,1670.8c14.3-3.4,29.6-7.6,45.7-12.8c13.9-4.5,26.9-9.3,38.9-14.2 c23.9,67.3,47.8,134.7,71.7,202c-18.2,6.8-38,13.4-59.4,19.5c-21.7,6.2-42.4,11.1-61.7,15 C1173.3,1810.5,1161.5,1740.6,1149.8,1670.8z" class="st0"/><path id="_x33_1" d="M969.5,1684.2c14.8,1.2,30.8,2,47.8,2c15.4,0,30-0.6,43.6-1.6c-0.6,70.3-1.1,140.6-1.7,210.9 c-19.9,0.8-41.4,1-64.2,0.1c-22.7-0.8-43.9-2.6-63.6-4.9C944.1,1821.8,956.8,1753,969.5,1684.2z" class="st0"/><path id="_x33_2" d="M681.4,1819c35.4-60.2,70.8-120.4,106.2-180.6c13.5,5.9,28.4,11.8,44.5,17.2 c16,5.5,31.3,9.8,45.5,13.4c-24.4,65.4-48.8,130.8-73.2,196.3c-20.5-5.8-42.4-13-65.4-21.8C718.2,1835.6,699,1827.3,681.4,1819z" class="st0"/><path id="_x33_3" d="M461.3,1665c54.3-44.8,108.5-89.6,162.8-134.4c10.7,10,22.7,20.5,35.9,31 c14.6,11.6,28.8,21.7,42.2,30.5c-45.4,53.3-90.9,106.5-136.3,159.8c-18.8-13.1-38.6-28.1-58.9-45.3 C490.3,1692.6,475.1,1678.6,461.3,1665z" class="st0"/><path id="_x33_4" d="M299.4,1438.4c67.5-24,135-47.9,202.5-71.9c6.7,13.5,14.5,27.9,23.5,42.7 c10.3,17,20.8,32.2,30.9,45.7c-61.7,35-123.4,69.9-185.1,104.9c-12.2-17-24.8-36-37.2-56.7C320.6,1480.4,309.1,1458.7,299.4,1438.4 z" class="st0"/><path id="_x33_5" d="M223.9,1159.8c2,23.4,5.1,49,10.1,76.2c4.4,24.4,9.7,47,15.3,67.7c71.5-12,143-24,214.5-36 c-4.4-15.6-8.6-32.9-12-51.6c-3.6-19.5-5.9-37.7-7.4-54.4C370.9,1161,297.4,1160.4,223.9,1159.8z" class="st0"/><path id="_x33_6" d="M224.9,1011.5c2-20.8,5.1-43.1,9.4-66.6c5.5-29.6,12.2-56.7,19.3-81 c71.1,26.5,142.2,53,213.2,79.6c-4,13.1-7.7,27.2-11.1,42.2c-5.3,23.8-8.7,46.2-10.7,66.5C371.7,1038.6,298.3,1025,224.9,1011.5z" class="st0"/></g><path id="arrow" d="M799.7,77l95,11.7l146.7,18.1l-14.2,147.1l-9.2,95.3l-21.3-26.6l-20.4-25.4l-26.8,18.6	c-36.7,25.4-72.8,52.8-107.3,81.3c-48.4,40-93.7,82.3-138.6,129.3c-83,87-151.7,176.9-204.4,267.2c-47.7,81.9-64.1,134-65.8,139.7	c-3.5,11.7-7,24.6-10.2,38.5c-2.1,9.1-3.3,14.3-3.9,17.6l0,0c-1.4,7.2-2.8,14.4-4,21.6l-151.6-28c1.9-13.3,4.1-26.5,6.6-39.6	c0.1-0.6,12.5-64.7,36.2-132.2c17.9-50.8,41-103.5,68.7-156.7c22.3-42.8,47.5-86,75-128.3c47-72.3,84.9-117.7,85.2-118.2	c43.2-51.4,90.7-99.8,141.2-143.9c43.8-38.2,90.6-73.9,139.1-105.9l32-21.2l-24-29.9L799.7,77 M718.5,31.8c26,32.4,52,64.8,78,97.3	c-44.3,29.3-92.8,65.1-142.8,108.8c-58.5,51.1-106.4,101.8-145,147.8c0,0-153.9,183.7-235.2,414.1c-25,70.9-37.6,137.3-37.6,137.3	c-5.8,30.7-9.1,56.5-10.9,74.6c73.4,13.6,146.8,27.1,220.2,40.7c1.5-14.4,4-33.5,8.5-55.8c0,0,5.4-26.5,13.4-52.9	c8.8-29.2,70.7-192.3,262-392.9c38.8-40.7,83.3-83.3,135.5-126.5c39.8-32.9,75.8-59.3,105-79.5c25.1,31.2,50.1,62.5,75.2,93.7	c11.6-120.7,23.3-241.4,34.9-362.1C959.2,61.4,838.8,46.6,718.5,31.8L718.5,31.8z" class="st0"/><polygon id="bg_border" points="1869.4 1983.8 148.6 1983.8 148.6 235.2 668 235.2 668 270.2 183.6 270.2 183.6 1948.8 1834.4 1948.8 1834.4 270.2 1049.7 270.2 1049.7 235.2 1869.4 235.2" class="st0"/></svg>