<svg xmlns="http://www.w3.org/2000/svg" viewBox="0 0 720.02 939.48"><defs><style>.cls-1{fill:#0073d1;}.cls-2{fill:#7f00ff;}.cls-3{fill:#3f00ff;}.cls-4{fill:blue;}.cls-5{fill:lime;}.cls-6{fill:#ffbc00;}.cls-7{fill:#ff7f00;}.cls-8{fill:red;}.cls-9{fill:#7c00ff;}.cls-10{fill:#5700ff;}.cls-11{fill:#3700ff;}.cls-12{fill:#0062ff;}.cls-13{fill:aqua;}.cls-14{fill:#83ff00;}.cls-15{fill:#ff0;}.cls-16{fill:#ff3c00;}</style></defs><title>Asset 9</title><g id="Layer_2" data-name="Layer 2"><g id="Layer_11" data-name="Layer 11"><g id="LOS-holder"><polygon id="L" class="cls-1" points="266.9 758.49 266.9 726.32 246.78 726.32 246.78 758.49 246.78 778.61 266.9 778.61 476.94 778.61 476.94 758.49 266.9 758.49"/><path id="O" class="cls-1" d="M456.83,790.67h-210V843H477V790.67Zm0,32.17H266.9V810.79H456.83Z"/><polygon id="S" class="cls-1" points="476.95 881.16 476.95 855.01 456.83 855.01 456.83 855.01 266.89 855.01 266.89 855.01 246.78 855.01 246.78 887.19 246.78 907.31 266.89 907.31 456.83 907.31 456.83 919.36 266.89 919.36 266.89 913.34 246.78 913.34 246.78 939.48 266.89 939.48 266.89 939.48 456.83 939.48 456.83 939.48 476.95 939.48 476.95 907.31 476.95 887.19 456.83 887.19 266.89 887.19 266.89 875.13 456.83 875.13 456.83 881.16 476.95 881.16"/></g><path class="cls-2" d="M187,408.82l-1-1.73q8.66-31,11.62-43.2-3.39-9.84,3.09-13.56a9.46,9.46,0,0,1,4-1.13l1.25,1.11a8.84,8.84,0,0,0,1.09,2.63,25.08,25.08,0,0,0,4,4.44c2.17,2.06,3.94,3.8,5.32,5.25a27.87,27.87,0,0,1,3.88,5.35,22.09,22.09,0,0,1,2.92,10.45,35.93,35.93,0,0,1-1.91,12.22,83.35,83.35,0,0,1-6.64,14.7,35.33,35.33,0,0,0,4.64-2.09,21,21,0,0,0,6-5.4,49.72,49.72,0,0,0,5.21-8.26q2.38-4.68,5.21-11.56l2.77,4.83a132.25,132.25,0,0,1-9.82,23.81q-5.13,9.12-10.76,12.35-7.25,4.16-16.73,1.92-5.61-1.38-8.32-4.05A37.83,37.83,0,0,1,187,408.82Zm22.44-27.54L202,371.54q-1.89,7.8-9.31,31.14c3.44-1.15,6-1.51,7.77-1.1a46.13,46.13,0,0,1,8.3,3.39,21.54,21.54,0,0,0,4.9-10.15q.81-5.11-2.67-11.17c-.28-.48-.54-.91-.78-1.28S209.69,381.64,209.42,381.28Z"/><path class="cls-3" d="M285.6,360l2,5.22q-5.83,11.52-9.75,18.15A66.68,66.68,0,0,1,270,394.36a22.27,22.27,0,0,1-8.59,6.08,13.25,13.25,0,0,1-9.68-.23,24.17,24.17,0,0,1-9.33-6.62,33.64,33.64,0,0,1-6.55-10.82,19.12,19.12,0,0,1-1-10.36q.94-5.07,5.64-14.3a99.9,99.9,0,0,1,11.25-18q5.68-7,9.84-8.55a7.68,7.68,0,0,1,5.81,0,6.86,6.86,0,0,1,3.93,4.13c.62,1.66.6,4.36-.08,8.11a42.77,42.77,0,0,1-3.16,10.3c-1.43,3.12-2.8,4.92-4.14,5.42a2,2,0,0,1-3-1.36c-.1-.44-.21-.84-.31-1.22s-.24-.74-.37-1.1c-.24-.63-.61-.89-1.11-.79a2.59,2.59,0,0,0-1.48,1.23q-6.27,8.58-8.52,12a25.4,25.4,0,0,0-3.18,6.31,8.06,8.06,0,0,0,0,5.42,10.31,10.31,0,0,0,6,6.28,12.51,12.51,0,0,0,9.32-.22q5.25-2,11.19-8.52A147,147,0,0,0,285.6,360Z"/><path class="cls-4" d="M326.75,351.48l1.31,5.93q-6.19,12-12.35,18.77t-11.28,7.9q-7.12,1.57-12.13-4.65a34.57,34.57,0,0,1-6.84-14.51,26.09,26.09,0,0,1-.64-6.2,22.48,22.48,0,0,1,.6-5.12c.36-1.38,1.12-3.6,2.27-6.63q8.37-20.67,18.62-22.93,5.29-1.17,6.14,2.65.58,2.6-1.64,8.88a36.63,36.63,0,0,1-4.38,9.23,135.52,135.52,0,0,0-7.76,11.67,9.33,9.33,0,0,0-1,6.6,6.23,6.23,0,0,0,3.42,4.36,9.38,9.38,0,0,0,6.51.61,18.85,18.85,0,0,0,8.37-4.78A114.35,114.35,0,0,0,326.75,351.48Zm-13.91-35a6.71,6.71,0,0,1-4.46-.64,4.9,4.9,0,0,1-2.82-3.47q-.78-3.57,1.89-8.76t6.59-6.05a6.57,6.57,0,0,1,4.68.54,5.6,5.6,0,0,1,2.69,4c.51,2.32-.11,5.16-1.86,8.5S315.56,315.87,312.84,316.47Z"/><path class="cls-5" d="M340.22,353.42l.15,2.07c.23,3.27,1.28,5.75,3.12,7.45a8.82,8.82,0,0,0,6.94,2.24,23.69,23.69,0,0,0,8.87-2.56,50.2,50.2,0,0,0,8.9-5.74q4.38-3.48,10.64-9.28l.37,5.06q-9.19,12-17.54,18.67t-17.39,7.31a15.23,15.23,0,0,1-12.92-4.81q-5-5.38-5.75-15.35a29.7,29.7,0,0,1,3.19-16.12q3.82-7.41,13.1-16a55.59,55.59,0,0,1,12.8-9.1,31.94,31.94,0,0,1,11.68-3.61,11,11,0,0,1,6.74,1.31,6.21,6.21,0,0,1,2.83,5.17q.38,5.22-3.41,10.72t-12,11.21A134.55,134.55,0,0,1,340.22,353.42Zm.49-5.46a51.52,51.52,0,0,0,13.13-8.21,37.76,37.76,0,0,0,7.78-8.87c1.61-2.76,2.38-4.75,2.29-6a1.67,1.67,0,0,0-2-1.77c-1.07.07-2.75.84-5.05,2.28a42.31,42.31,0,0,0-6.91,5.51,37.46,37.46,0,0,0-6.09,7.7A22.45,22.45,0,0,0,340.71,348Z"/><path class="cls-6" d="M439.92,338.74q-17.31,14.52-18,20.89-.37,3.56,2.71,3.89,2.56.28,6.95-1.8t13.84-7.57l-.62,5.7Q431,370.08,423.7,374.47t-11.51,3.94q-7.26-.8-6.28-9.72a16,16,0,0,1,1.44-5.11,33.5,33.5,0,0,1,3-5.07q1.84-2.61,5.59-7.43t8.61-10.91q-5.3,1.86-13.67,8.14a94.34,94.34,0,0,0-9.32,7.57q-3.88,3.63-8.35,8.13a71.54,71.54,0,0,1-6.46,6,5.48,5.48,0,0,1-3.86,1.3c-1.88-.21-3.42-2.24-4.61-6.11a32.61,32.61,0,0,1-1-13.16,18.42,18.42,0,0,1,1.88-7,46.57,46.57,0,0,1,5.16-6.8,82.08,82.08,0,0,1,11.92-11.72q4.86-3.61,8.93-3.18a9.9,9.9,0,0,1,4.45,1.41,3,3,0,0,1,1.42,3,3.49,3.49,0,0,1-.72,1.68A10.57,10.57,0,0,1,409,331c-.5.45-1.53,1.31-3.1,2.59q-15.54,13-16,17.26c-.18,1.6.3,2.46,1.42,2.58.7.08,2.19-.83,4.45-2.74s5.19-4.4,8.78-7.5a139.42,139.42,0,0,1,12.57-9.55,123.8,123.8,0,0,1,16.16-9.21q5-2.55,8.11-2.22,1.41.16,2.39,3.94a20.87,20.87,0,0,1,.57,7.51C444.19,334.83,442.73,336.54,439.92,338.74Z"/><path class="cls-7" d="M495.81,370.7,494.22,376q-11.61,5.65-18.74,8.56a67.11,67.11,0,0,1-12.88,4,22.24,22.24,0,0,1-10.52-.36,13.26,13.26,0,0,1-7.57-6,24.21,24.21,0,0,1-3.43-10.92,33.64,33.64,0,0,1,1.34-12.58,19,19,0,0,1,5.43-8.88q3.81-3.46,13.14-8a100.5,100.5,0,0,1,19.82-7.5q8.74-2.13,13-.85a7.67,7.67,0,0,1,4.61,3.54,6.9,6.9,0,0,1,.63,5.66c-.51,1.7-2.16,3.84-5,6.41a42.67,42.67,0,0,1-8.75,6.29c-3,1.62-5.2,2.23-6.57,1.82a2,2,0,0,1-1.55-2.89c.18-.41.35-.8.49-1.16s.26-.73.37-1.1c.19-.64.06-1.07-.4-1.29a2.59,2.59,0,0,0-1.93.07q-10.19,3-14,4.38a26,26,0,0,0-6.36,3.09,8.09,8.09,0,0,0-3.28,4.32,10.33,10.33,0,0,0,1,8.62,12.53,12.53,0,0,0,7.56,5.46q5.37,1.6,14.06,0A145.92,145.92,0,0,0,495.81,370.7Z"/><path class="cls-8" d="M506.83,379.48l-.9,1.87q-2.12,4.42-1,8a8.89,8.89,0,0,0,4.91,5.4,23.72,23.72,0,0,0,9,2.18,50.57,50.57,0,0,0,10.58-.55q5.54-.86,13.85-2.76l-2.2,4.57q-13.95,5.85-24.5,7.48t-18.72-2.3A15.25,15.25,0,0,1,489,392.78q-1.68-7.17,2.64-16.17a29.69,29.69,0,0,1,10.79-12.4q7-4.53,19.32-7.37a55.27,55.27,0,0,1,15.63-1.54A31.8,31.8,0,0,1,549.31,358a11,11,0,0,1,5.2,4.48,6.21,6.21,0,0,1-.12,5.9q-2.26,4.72-8.28,7.6t-16,3.77A134.15,134.15,0,0,1,506.83,379.48ZM510,375a51.52,51.52,0,0,0,15.47-.6,37.84,37.84,0,0,0,11.16-3.82q4.15-2.38,4.95-4a1.67,1.67,0,0,0-.86-2.53q-1.44-.69-5.51-.53a43.25,43.25,0,0,0-8.74,1.34,37.87,37.87,0,0,0-9.1,3.66A22.36,22.36,0,0,0,510,375Z"/><path class="cls-9" d="M208.45,616.56l-31,53.77a360.44,360.44,0,0,1-60.23-44.56l60.51-67.21C188.74,576.59,199.28,594.36,208.45,616.56Z"/><path class="cls-10" d="M149.47,510.29l-82,59.58A358.8,358.8,0,0,1,30.39,505L126,462.44C133.65,480.29,142.05,496.31,149.47,510.29Z"/><path class="cls-11" d="M108.82,412.39,7.6,433.9A360.47,360.47,0,0,1,0,360v-.33H101.43A246,246,0,0,0,108.82,412.39Z"/><path class="cls-12" d="M122.68,255.47a253.23,253.23,0,0,0-16.48,51L7.73,285.49a356.54,356.54,0,0,1,22.9-71Z"/><path class="cls-4" d="M183.19,166.92a296.51,296.51,0,0,0-34.32,41.72l-81.1-58.91A360.64,360.64,0,0,1,117.49,94Z"/><path class="cls-13" d="M275.75,110.36a265.48,265.48,0,0,0-49.44,23.39L177.68,49.52a357.39,357.39,0,0,1,68.21-31.05Z"/><path class="cls-5" d="M394.39,1.62l-9.86,93.82c-8.77-.86-15.84-1.13-20.72-1.23a276.44,276.44,0,0,0-34.64,2.94l-10-94.86A361.76,361.76,0,0,1,360,0Q377.41,0,394.39,1.62Z"/><path class="cls-14" d="M537.46,46.71l-46.74,80.95a269.4,269.4,0,0,0-51.6-21.47l29.12-89.63A357.52,357.52,0,0,1,537.46,46.71Z"/><path class="cls-15" d="M650,146.63l-76,55.23c-17.49-24.17-33.21-38.59-35.63-40.74-.52-.47-1-.92-1.56-1.38l62.15-69A362.07,362.07,0,0,1,650,146.63Z"/><path class="cls-6" d="M712,284.17l-91.2,19.39a256,256,0,0,0-18.25-53.32l85.75-38.18A357.15,357.15,0,0,1,712,284.17Z"/><path class="cls-7" d="M720,359.68V360a361.14,361.14,0,0,1-7.87,75.21l-94.06-20a247.52,247.52,0,0,0,8.1-55.56Z"/><path class="cls-16" d="M688.55,507.41A358.84,358.84,0,0,1,650.31,573l-76.1-55.29q1.23-2.26,2.46-4.58c7.06-13.28,15.12-28.47,22.68-45.4Z"/><path class="cls-8" d="M599.27,629a361.24,361.24,0,0,1-61.53,44.14l-24.19-41.9c8.89-25.2,19.43-44.54,30.72-63.32Z"/></g></g></svg>