<?xml version="1.0" encoding="utf-8"?>
<!-- Generator: Adobe Illustrator 22.1.0, SVG Export Plug-In . SVG Version: 6.00 Build 0)  -->
<svg version="1.1" id="Light_Of_Science_Logo" xmlns="http://www.w3.org/2000/svg" xmlns:xlink="http://www.w3.org/1999/xlink"
	 x="0px" y="0px" viewBox="0 0 706 706" style="enable-background:new 0 0 706 706;" xml:space="preserve">
<style type="text/css">
	.st0{fill:#FFFFFF;}
	.st1{fill:#0073D1;}
	.st2{fill:#7F00FF;}
	.st3{fill:#3F00FF;}
	.st4{fill:#0000FF;}
	.st5{fill:#00FF00;}
	.st6{fill:#FFBC00;}
	.st7{fill:#FF7F00;}
	.st8{fill:#FF0000;}
	.st9{fill:#7C00FF;}
	.st10{fill:#5700FF;}
	.st11{fill:#3700FF;}
	.st12{fill:#0062FF;}
	.st13{fill:#00FFFF;}
	.st14{fill:#83FF00;}
	.st15{fill:#FFFF00;}
	.st16{fill:#FF3C00;}
</style>
<title>Light Of Science Logo</title>
<g id="Light_Of_Science_Logo_1_">
	<g id="_1">
		<circle class="st0" cx="353" cy="353" r="353"/>
	</g>
	<g id="Light_Of_Science_Logo_2_">
		<g id="LOS-holder">
			<polygon id="L" class="st1" points="290.1,548 290.1,526.2 276.5,526.2 276.5,548 276.5,561.5 290.1,561.5 432,561.5 432,548 			
				"/>
			<path id="O" class="st1" d="M418.4,569.7H276.5V605H432v-35.3H418.4z M418.4,591.4H290.1v-8.1h128.2V591.4z"/>
			<polygon id="S" class="st1" points="432,630.8 432,613.1 418.4,613.1 418.4,613.1 290.1,613.1 290.1,613.1 276.5,613.1 
				276.5,634.8 276.5,648.4 290.1,648.4 418.4,648.4 418.4,656.6 290.1,656.6 290.1,652.5 276.5,652.5 276.5,670.2 290.1,670.2 
				290.1,670.2 418.4,670.2 418.4,670.2 432,670.2 432,648.4 432,634.8 418.4,634.8 290.1,634.8 290.1,626.7 418.4,626.7 
				418.4,630.8 			"/>
		</g>
		<path class="st2" d="M239.5,305.2l-0.6-1.2c4.7-13.7,7.8-23.3,9.4-28.7c-1.3-4.5-0.4-7.5,2.6-9c0.9-0.4,1.8-0.6,2.7-0.6l0.8,0.8
			c0.1,0.6,0.3,1.3,0.6,1.8c0.7,1.1,1.6,2.2,2.6,3.1c1.4,1.5,2.5,2.7,3.4,3.7c1,1.2,1.8,2.4,2.4,3.8c1.1,2.2,1.7,4.7,1.6,7.2
			c-0.1,2.8-0.7,5.6-1.8,8.2c-1.4,3.4-3,6.6-5,9.7c1.1-0.3,2.2-0.7,3.2-1.2c1.6-0.9,3-2,4.2-3.4c1.4-1.7,2.7-3.5,3.8-5.4
			c1.2-2,2.5-4.6,3.9-7.6l1.7,3.4c-2,5.5-4.5,10.7-7.5,15.7c-2.5,4-5.1,6.6-7.7,7.9c-3.6,1.7-7.6,2-11.4,0.7c-2-0.5-3.9-1.5-5.4-3
			C241.7,309.2,240.4,307.2,239.5,305.2z M255.6,287.4l-4.6-6.8c-1,3.5-3.5,10.3-7.4,20.6c2.4-0.7,4.1-0.8,5.3-0.5
			c1.9,0.7,3.7,1.5,5.5,2.6c1.8-1.8,3.1-4.1,3.7-6.6c0.4-2.6-0.1-5.3-1.4-7.6c-0.2-0.3-0.3-0.6-0.5-0.9S255.8,287.7,255.6,287.4
			L255.6,287.4z"/>
		<path class="st3" d="M307.8,276l1.1,3.6c-2.9,5-5.3,9-7.3,11.9c-1.7,2.6-3.6,4.9-5.7,7.1c-1.7,1.7-3.7,3-6,3.8
			c-2.2,0.7-4.5,0.5-6.5-0.5c-2.4-1.1-4.4-2.7-6-4.8c-1.8-2.2-3.2-4.8-4-7.5c-0.8-2.3-0.9-4.7-0.3-7c1-3.3,2.5-6.5,4.3-9.4
			c2.3-4.2,5.1-8.1,8.3-11.7c2.7-3,5.1-4.8,7-5.4c1.3-0.4,2.7-0.3,3.9,0.2c1.2,0.6,2.1,1.6,2.5,2.9c0.4,1.1,0.2,3-0.4,5.5
			c-0.5,2.4-1.4,4.7-2.5,6.8c-1.1,2-2.1,3.2-3,3.5c-0.7,0.4-1.5,0.1-1.9-0.6c-0.1-0.1-0.1-0.3-0.1-0.4c0-0.3-0.1-0.6-0.2-0.8
			s-0.1-0.5-0.2-0.8c-0.1-0.4-0.4-0.6-0.7-0.6c-0.4,0.1-0.8,0.4-1,0.8c-3,3.7-5.1,6.3-6.2,7.8c-1,1.3-1.8,2.7-2.4,4.1
			c-0.5,1.2-0.6,2.4-0.2,3.6c0.5,2,1.9,3.6,3.8,4.5c2,0.9,4.3,0.9,6.3,0.2c2.4-0.7,5-2.5,7.9-5.3C301.7,283.8,304.9,280,307.8,276z"
			/>
		<path class="st4" d="M335.8,271.7l0.7,4c-2.5,4.4-5.5,8.5-9,12.2c-2.9,2.9-5.6,4.5-7.9,4.9c-3.2,0.5-5.9-0.7-8-3.6
			c-2.1-3-3.5-6.4-4.1-10c-0.2-1.4-0.3-2.8-0.2-4.2c0.1-1.2,0.3-2.3,0.6-3.4c0.3-0.9,0.9-2.4,1.8-4.4c4.3-9.1,8.8-14,13.4-14.8
			c2.4-0.4,3.7,0.3,4,2c0.2,1.2-0.3,3.2-1.4,5.9c-0.8,2.2-1.9,4.2-3.3,6c-2,2.4-3.9,5-5.7,7.6c-0.8,1.3-1.2,2.9-0.9,4.4
			c0.2,1.3,1,2.4,2.1,3.1c1.3,0.7,2.9,1,4.4,0.6c2.2-0.4,4.2-1.4,5.8-2.9C330.9,276.9,333.5,274.4,335.8,271.7z M327.8,247.6
			c-1,0.2-2.1,0-3-0.6c-0.9-0.5-1.6-1.4-1.8-2.4c-0.3-1.6,0.3-3.6,1.6-5.8s2.9-3.6,4.7-3.8c1.1-0.2,2.2,0,3.1,0.6
			c0.9,0.6,1.6,1.6,1.7,2.8c0.3,1.6-0.3,3.5-1.6,5.7S329.6,247.3,327.8,247.6L327.8,247.6z"/>
		<path class="st5" d="M344.8,273.5v1.4c-0.1,1.9,0.6,3.7,1.8,5.1c1.2,1.2,2.9,1.9,4.6,1.8c2.1-0.1,4.2-0.5,6.1-1.4
			c2.2-1,4.3-2.1,6.2-3.5c2.1-1.5,4.6-3.4,7.5-5.9l0.1,3.4c-3.7,4.5-7.9,8.5-12.5,11.9c-3.5,2.6-7.7,4.1-12,4.3
			c-3.3,0.2-6.4-1.2-8.5-3.7c-2.1-2.6-3.2-6.1-3.3-10.6c-0.1-3.8,0.8-7.5,2.8-10.8c1.9-3.2,5-6.7,9.4-10.3c2.7-2.3,5.7-4.2,9-5.7
			c2.5-1.2,5.2-1.9,8-2c1.6-0.1,3.2,0.3,4.5,1.1c1.1,0.8,1.8,2.2,1.7,3.6c-0.1,2.6-1,5.1-2.7,7.1c-2.4,2.8-5.3,5.3-8.5,7.1
			C354.5,269.4,349.7,271.7,344.8,273.5z M345.4,269.9c3.3-1.2,6.4-2.9,9.2-5c2.1-1.6,4-3.5,5.6-5.7c1.2-1.8,1.8-3.1,1.8-3.9
			s-0.4-1.3-1.3-1.3c-1.2,0.2-2.4,0.7-3.5,1.4c-1.7,1-3.4,2.1-4.9,3.5c-1.7,1.5-3.1,3.1-4.4,5C346.6,265.6,345.7,267.7,345.4,269.9
			L345.4,269.9z"/>
		<path class="st6" d="M412.6,267.4c-8.1,6.1-12.5,10.6-12.9,13.4c-0.3,1.6,0.3,2.5,1.7,2.7c1.6,0.1,3.3-0.3,4.8-1
			c2-0.8,5.2-2.4,9.6-4.6l-0.6,3.8c-6.5,4.3-11.4,7.3-14.8,9.1s-6,2.5-7.9,2.2c-3.2-0.5-4.5-2.8-3.9-6.8c0.2-1.2,0.6-2.3,1.2-3.4
			c0.6-1.2,1.4-2.3,2.2-3.3c0.9-1.1,2.3-2.7,4-4.8c1.8-2.1,3.9-4.4,6.2-7c-3.4,1.2-6.6,2.9-9.5,5c-2.3,1.4-4.5,3-6.6,4.8
			c-1.8,1.5-3.8,3.3-5.9,5.2c-1.4,1.4-3,2.6-4.6,3.8c-0.8,0.6-1.7,0.8-2.6,0.7c-1.3-0.2-2.2-1.6-2.9-4.3c-0.7-2.9-0.7-6-0.2-8.9
			c0.2-1.6,0.7-3.2,1.5-4.6c1.1-1.6,2.4-3,3.7-4.4c2.6-2.8,5.4-5.3,8.5-7.5c2.3-1.5,4.3-2.1,6.1-1.8c1.1,0.1,2.1,0.5,3,1.1
			c0.7,0.5,1,1.3,0.9,2.1c-0.1,0.4-0.3,0.8-0.6,1.1c-0.3,0.4-0.6,0.7-1,1c-0.4,0.3-1.1,0.8-2.2,1.6c-7.3,5.4-11.1,9.1-11.4,11
			c-0.2,1.1,0.1,1.7,0.9,1.8c0.5,0.1,1.5-0.5,3.1-1.7s3.7-2.8,6.2-4.7c2.8-2.2,5.8-4.2,8.8-6c3.6-2.1,7.4-4,11.2-5.6
			c2.3-1,4.2-1.4,5.5-1.2c0.6,0.1,1.1,1,1.5,2.7c0.3,1.7,0.4,3.4,0.1,5.1C415.6,264.9,414.6,266,412.6,267.4z"/>
		<path class="st7" d="M449.1,291l-1.3,3.5c-5.3,2.3-9.6,3.9-13,5.1c-2.9,1-5.8,1.8-8.8,2.2c-2.4,0.4-4.8,0.1-7.1-0.6
			c-2.1-0.8-3.9-2.3-4.9-4.4c-1.2-2.3-1.9-4.9-1.9-7.5c-0.1-2.9,0.4-5.7,1.4-8.4c0.8-2.3,2.2-4.3,4-5.8c2.8-2,5.9-3.7,9.2-4.9
			c4.4-1.9,9-3.4,13.6-4.3c4-0.7,6.9-0.8,8.8-0.1c1.3,0.4,2.4,1.3,3,2.6c0.6,1.2,0.7,2.6,0.2,3.8c-0.4,1.1-1.6,2.5-3.6,4.1
			c-1.9,1.6-3.9,2.9-6.1,3.9c-2.1,1-3.6,1.3-4.5,1c-0.8-0.2-1.2-0.9-1.1-1.7c0-0.1,0.1-0.2,0.1-0.3c0.1-0.3,0.3-0.5,0.4-0.8
			s0.2-0.5,0.3-0.7c0.1-0.4,0.1-0.7-0.2-0.9c-0.4-0.2-0.9-0.2-1.3,0c-4.7,1.1-7.9,1.9-9.6,2.4c-1.5,0.4-3,1-4.4,1.9
			c-1.1,0.6-1.9,1.6-2.4,2.8c-0.8,1.9-0.6,4,0.3,5.8c1.1,1.9,2.8,3.3,4.9,4c2.4,0.8,5.5,1,9.5,0.5
			C439.5,293.6,444.4,292.5,449.1,291z"/>
		<path class="st8" d="M456.2,297.3l-0.7,1.2c-1,1.6-1.4,3.5-1,5.4c0.4,1.7,1.6,3.1,3.1,3.8c1.9,1,3.9,1.6,6,1.8
			c2.4,0.3,4.8,0.3,7.1,0c2.5-0.2,5.7-0.7,9.5-1.4l-1.7,3c-5.4,2-11,3.4-16.8,4.1c-4.3,0.6-8.7-0.2-12.5-2.3c-2.9-1.5-5-4.2-5.5-7.5
			c-0.6-3.3,0.2-6.9,2.4-10.8c1.8-3.3,4.5-6.1,7.7-8c4.2-2.2,8.7-3.6,13.3-4.3c3.5-0.7,7.1-0.8,10.6-0.5c2.8,0.2,5.5,1,7.9,2.3
			c1.4,0.7,2.6,1.8,3.3,3.2c0.6,1.3,0.5,2.8-0.3,4c-1.3,2.2-3.4,3.9-5.9,4.8c-3.5,1.3-7.2,1.9-10.9,2
			C466.6,298.4,461.4,298.1,456.2,297.3z M458.5,294.4c3.5,0.6,7,0.6,10.5,0.2c2.7-0.3,5.2-1,7.7-2.2c1.9-1,3.1-1.8,3.5-2.5
			c0.4-0.5,0.3-1.2-0.2-1.6c-0.1-0.1-0.2-0.1-0.3-0.2c-1.2-0.4-2.4-0.6-3.7-0.6c-2,0-4,0.2-5.9,0.6c-2.2,0.4-4.3,1.2-6.3,2.1
			C461.7,291.3,459.9,292.7,458.5,294.4z"/>
		<path class="st9" d="M250.7,452.1l-21,36.3c-14.6-8.6-28.2-18.7-40.7-30.1l40.9-45.4C237.4,425.1,244.5,437.1,250.7,452.1z"/>
		<path class="st10" d="M210.9,380.4l-55.4,40.2c-9.8-13.7-18.2-28.4-25-43.8l64.5-28.7C200.2,360.1,205.8,370.9,210.9,380.4z"/>
		<path class="st11" d="M183.4,314.3l-68.3,14.5c-3.4-16.4-5.1-33.1-5.1-49.9v-0.2h68.5C178.8,290.7,180.5,302.6,183.4,314.3z"/>
		<path class="st12" d="M192.8,208.3c-4.9,11-8.6,22.6-11.1,34.4l-66.5-14.1c3.5-16.5,8.6-32.5,15.5-47.9L192.8,208.3z"/>
		<path class="st4" d="M233.6,148.5c-8.6,8.7-16.3,18.1-23.2,28.2l-54.8-39.8c9.9-13.7,21.1-26.3,33.6-37.7L233.6,148.5z"/>
		<path class="st13" d="M296.1,110.3c-11.6,4.1-22.8,9.4-33.4,15.8l-32.8-56.9c14.6-8.6,30-15.6,46-21L296.1,110.3z"/>
		<path class="st5" d="M376.2,36.9l-6.6,63.3c-5.9-0.6-10.7-0.8-14-0.8c-7.8,0.2-15.6,0.8-23.4,2l-6.7-64c9.2-1,18.4-1.6,27.6-1.6
			C360.8,35.8,368.6,36.2,376.2,36.9z"/>
		<path class="st14" d="M472.8,67.4L441.3,122c-11.1-6-22.8-10.9-34.8-14.5L426.1,47C442.3,52.1,458,59,472.8,67.4z"/>
		<path class="st15" d="M548.8,134.9l-51.3,37.3c-11.8-16.3-22.4-26-24.1-27.5l-1-0.9l42-46.6C527.1,108.4,538.7,121.1,548.8,134.9z
			"/>
		<path class="st6" d="M590.7,227.7l-61.6,13.1c-2.8-12.4-6.9-24.5-12.3-36l57.9-25.8C581.7,194.6,587.1,211,590.7,227.7z"/>
		<path class="st7" d="M596.1,278.7v0.2c0,17.1-1.8,34.1-5.3,50.8l-63.5-13.5c3.2-12.3,5.1-24.8,5.5-37.5H596.1z"/>
		<path class="st16" d="M574.8,378.4c-7,15.6-15.7,30.5-25.8,44.3l-51.4-37.3c0.5-1,1.1-2,1.7-3.1c4.8-9,10.2-19.2,15.3-30.6
			L574.8,378.4z"/>
		<path class="st8" d="M514.5,460.5c-12.8,11.4-26.7,21.4-41.5,29.8L456.7,462c6-17,13.1-30.1,20.7-42.8L514.5,460.5z"/>
	</g>
</g>
</svg>
